<?xml version="1.0" encoding="UTF-8"?>
<svg id="Layer_2" data-name="Layer 2" xmlns="http://www.w3.org/2000/svg" xmlns:xlink="http://www.w3.org/1999/xlink" viewBox="0 0 3576.89 2836.59">
  <defs>
    <style>
      .cls-1 {
        fill: #bdd5e4;
      }

      .cls-1, .cls-2, .cls-3, .cls-4, .cls-5, .cls-6, .cls-7, .cls-8, .cls-9, .cls-10, .cls-11, .cls-12, .cls-13, .cls-14, .cls-15 {
        stroke-width: 0px;
      }

      .cls-2 {
        fill: #15878a;
      }

      .cls-4 {
        fill: #201600;
      }

      .cls-5 {
        fill: #bee0e1;
      }

      .cls-6 {
        fill: none;
      }

      .cls-7 {
        fill: #222221;
      }

      .cls-8 {
        fill: #f6f6f6;
      }

      .cls-9 {
        fill: #fff;
      }

      .cls-10 {
        fill: #138689;
      }

      .cls-11 {
        fill: #bfe2e2;
      }

      .cls-12 {
        fill: #63bfc2;
      }

      .cls-16 {
        clip-path: url(#clippath);
      }

      .cls-13 {
        fill: #0f4a6e;
      }

      .cls-14 {
        fill: #afafaf;
      }

      .cls-15 {
        fill: #232c53;
      }
    </style>
    <clipPath id="clippath">
      <path class="cls-6" d="m1565.38,907.49c-1.79-.24-3.25-1.93-3.25-3.76v-324.64c0-1.83,1.46-3.12,3.25-2.88l239.97,32.43c1.79.24,3.25,1.93,3.25,3.76v324.64c0,1.83-1.46,3.12-3.25,2.88l-239.97-32.43Z"/>
    </clipPath>
  </defs>
  <g id="_Ñëîé_1" data-name="Ñëîé 1">
    <g>
      <g>
        <path class="cls-2" d="m3347.24,2645.72c-.35,2.29-5.62,3.4-11.79,2.48l-2994.33-450.31c-6.16-.93-10.88-3.54-10.53-5.83l2.16-14.38c.35-2.3,5.62-3.41,11.78-2.48l2994.32,450.31c6.16.93,10.88,3.54,10.54,5.83l-2.16,14.39Z"/>
        <path class="cls-2" d="m2987.85,2765.36c-.35,2.3-2.81,3.83-5.51,3.42l-1309.91-197c-2.7-.4-4.6-2.59-4.26-4.89l2.16-14.38c.34-2.29,2.81-3.83,5.51-3.42l1309.91,197c2.7.41,4.61,2.59,4.26,4.89l-2.16,14.39Z"/>
        <path class="cls-2" d="m1271.83,2531.19c-.35,2.3-2.73,3.84-5.33,3.45L4.12,2344.79c-2.6-.39-4.43-2.57-4.08-4.86l2.16-14.39c.34-2.29,2.73-3.84,5.33-3.45l1262.38,189.85c2.6.39,4.43,2.57,4.08,4.86l-2.16,14.38Z"/>
        <path class="cls-2" d="m1379.39,2795.34c-.34,2.29-2.81,3.82-5.51,3.42L63.98,2601.76c-2.7-.4-4.6-2.59-4.26-4.89l2.16-14.39c.35-2.29,2.81-3.83,5.51-3.42l1309.91,197c2.7.41,4.6,2.6,4.26,4.89l-2.17,14.39Z"/>
        <path class="cls-2" d="m1953.98,2832.69c-.34,2.29-1.38,4.04-2.33,3.9l-456.54-68.66c-.94-.14-1.42-2.11-1.08-4.41l2.16-14.39c.34-2.29,1.39-4.04,2.33-3.9l456.54,68.66c.94.14,1.42,2.12,1.08,4.41l-2.17,14.39Z"/>
        <path class="cls-5" d="m3568.32,1452.32c-23.36-96.43-91.33-185.19-164.76-245.91-113.06-93.5-240.52-188.58-296.16-329.75-67.91-172.28,6.1-363.44-56.51-537.31-106.09-294.61-600.97-350.1-827.01-181.24-134.94,100.8-239.02,271.45-408.19,318.23-178.66,49.41-353.39-53.57-512.93-117.97-91.3-36.85-204.27-65.08-303.64-48.45-186.57,31.22-340.42,221.22-350.36,406.29-11.27,209.71,127.62,396.59,121.86,607.22-5.02,183.58-147.06,282.58-217.27,438.5-165.96,368.56,282.29,471.79,529.38,580.36,102.24,44.92,204.95,94.88,317.44,95.32h406.44c78.84-.42,136.34-16.31,208.2-34.67,51.22-13.09,113.55-7.04,168.95-7.17,290.76-.69,595.01,140.81,840.68-96.64,128.12-123.83,132.49-312.32,247.63-439.49,87.82-96.99,245.21-118.6,291.04-253.73,17.42-51.37,17.33-103.52,5.2-153.6Z"/>
        <g>
          <path class="cls-2" d="m2918.01,2365.57l-1761.32-211.19c-34.02-4.33-79.79,1.44-101.94,12.9l-710.59,332.28c-19.05,9.12-1.07,45.44,36.34,50.86l1944.97,279.71c42.83,6.2,93.47-3.52,114.5-19.95,142.79-111.54,476.72-370.59,476.72-370.59,16.02-13.17,19.52-72.88,1.33-74.02Z"/>
          <path class="cls-7" d="m2920.4,2383.93l-501,405.3c-20.41,16.51-72.16,25.1-114.71,18.97l-1934.31-278.8c-37.17-5.36-44.72-21.4-17.08-35.55l460.11-235.46,223.82-114.55c18.61-9.53,53.88-15.05,84.68-13.99,5.72.19,11.3.62,16.6,1.29l314.73,39.85,1426.44,180.61.6.07c38,4.82,56.15,19.3,40.12,32.26Z"/>
          <path class="cls-9" d="m2333.61,2806.46c-9.88,0-19.43-.66-28.38-1.94l-1934.31-278.8c-21.31-3.07-29.73-9.35-30.47-13.79-.7-4.23,4.73-9.75,14.55-14.77l460.11-235.46,223.82-114.55c16.02-8.2,46.28-13.71,75.31-13.71,2.54,0,5.09.04,7.55.13,5.66.19,11.12.61,16.26,1.26l1741.16,220.46.63.08c26.88,3.41,40.72,11.25,42.5,17.52.72,2.54-.71,5.29-4.27,8.16l-500.99,405.3c-14.88,12.04-48.42,20.12-83.46,20.12Z"/>
          <path class="cls-2" d="m1635.2,2687.19c-12.85,1.98-25.04,2.26-35.24.8l-531.6-76.29c-10.46-1.5-17.9-4.89-20.94-9.52-4.5-6.86.81-15.43,14.52-23.48l188.92-110.99c12.16-7.14,30.43-12.95,48.9-15.56,12.23-1.72,23.69-1.95,33.16-.66l511.51,69.93c10.43,1.43,18.37,4.65,22.35,9.07,5.92,6.59,2.65,14.88-9.03,22.75l-172.6,116.33c-11.9,8.03-30.59,14.62-49.94,17.61Z"/>
          <g>
            <path class="cls-2" d="m904.43,2349.97c-6.76,3.61-24.63,4.9-39.7,2.86l-60.51-8.2c-14.99-2.03-21.61-6.63-14.76-10.21l21.16-11.05c6.8-3.55,24.52-4.8,39.41-2.8l60.16,8.09c14.98,2.01,21.78,6.59,15.09,10.17l-20.86,11.14Z"/>
            <path class="cls-2" d="m1001.05,2363.04c-6.67,3.64-22.81,5.17-35.84,3.41l-40.32-5.47c-12.98-1.76-18.06-6.16-11.32-9.77l20.83-11.15c6.69-3.58,22.69-5.09,35.6-3.35l40.08,5.39c12.95,1.74,18.16,6.11,11.55,9.71l-20.58,11.23Z"/>
            <path class="cls-2" d="m1099.04,2376.29c-6.58,3.66-23.3,5.14-37.12,3.26l-42.77-5.79c-13.77-1.87-19.56-6.37-12.89-10.02l20.57-11.23c6.6-3.61,23.18-5.05,36.87-3.21l42.52,5.72c13.74,1.85,19.67,6.32,13.14,9.96l-20.32,11.31Z"/>
            <path class="cls-2" d="m1888.95,2483.12c-5.85,3.89-19.45,5.88-30.2,4.43l-744.94-100.96c-10.21-1.38-13.17-5.52-6.59-9.19l20.29-11.32c6.52-3.64,20.13-5.49,30.28-4.12l740.33,99.56c10.68,1.43,14.69,5.75,8.89,9.61l-18.06,12Z"/>
            <path class="cls-2" d="m1983.42,2495.9c-5.77,3.92-19.34,5.92-30.16,4.46l-48.47-6.57c-10.78-1.46-14.79-5.84-8.94-9.73l18.03-12c5.79-3.85,19.27-5.83,29.98-4.38l48.16,6.47c10.74,1.44,14.88,5.8,9.17,9.67l-17.78,12.08Z"/>
            <path class="cls-2" d="m2078.47,2508.75c-5.67,3.94-19.23,5.97-30.12,4.49l-48.78-6.61c-10.85-1.47-14.99-5.88-9.23-9.8l17.76-12.09c5.69-3.88,19.16-5.86,29.93-4.41l48.47,6.52c10.81,1.45,15.08,5.83,9.47,9.73l-17.5,12.17Z"/>
            <path class="cls-2" d="m2174.76,2521.77c-5.58,3.97-19.12,6.01-30.08,4.52l-49.09-6.65c-10.91-1.48-15.19-5.92-9.52-9.87l17.47-12.17c5.61-3.91,19.05-5.91,29.89-4.45l48.77,6.56c10.88,1.46,15.29,5.87,9.76,9.8l-17.2,12.26Z"/>
            <path class="cls-2" d="m2271.02,2534.79c-5.48,4-19,6.05-30.03,4.56l-49.41-6.7c-10.98-1.49-15.39-5.96-9.82-9.93l17.19-12.26c5.52-3.93,18.94-5.95,29.85-4.48l49.08,6.6c10.95,1.47,15.49,5.91,10.06,9.87l-16.92,12.34Z"/>
            <path class="cls-2" d="m1016.9,2331.32c-6.59,3.57-20.2,5.39-30.22,4.04l-140.78-18.91c-9.92-1.33-12.5-5.31-5.76-8.83l20.81-10.87c6.68-3.49,20.2-5.26,30.06-3.94l139.96,18.66c9.96,1.32,12.79,5.3,6.26,8.84l-20.34,11.01Z"/>
            <path class="cls-2" d="m1106.1,2343.28c-6.51,3.59-20.11,5.43-30.19,4.07l-44.14-5.93c-10.05-1.36-12.87-5.39-6.29-8.95l20.32-11.02c6.52-3.54,20.01-5.34,30-4.01l43.87,5.85c10.03,1.34,12.97,5.34,6.52,8.9l-20.09,11.08Z"/>
            <path class="cls-2" d="m1182.29,2353.49c-6.45,3.61-20.02,5.46-30.17,4.1l-31.39-4.22c-10.11-1.36-13.05-5.42-6.55-9.01l20.07-11.1c6.45-3.56,19.92-5.37,29.97-4.03l31.21,4.16c10.07,1.34,13.12,5.37,6.73,8.95l-19.89,11.15Z"/>
            <path class="cls-2" d="m1258.89,2363.76c-6.37,3.63-19.95,5.5-30.14,4.12l-31.56-4.24c-10.16-1.36-13.19-5.45-6.76-9.06l19.86-11.16c6.38-3.58,19.85-5.41,29.95-4.06l31.37,4.19c10.13,1.35,13.27,5.4,6.95,9l-19.68,11.21Z"/>
            <path class="cls-2" d="m1335.9,2374.08c-6.3,3.65-19.86,5.53-30.11,4.15l-31.72-4.26c-10.22-1.38-13.35-5.48-6.99-9.11l19.65-11.23c6.31-3.6,19.77-5.44,29.92-4.08l31.53,4.2c10.19,1.36,13.43,5.43,7.18,9.06l-19.46,11.28Z"/>
            <path class="cls-2" d="m1413.31,2384.46c-6.24,3.68-19.78,5.57-30.08,4.18l-31.89-4.29c-10.27-1.38-13.51-5.5-7.21-9.16l19.43-11.29c6.24-3.62,19.68-5.47,29.9-4.11l31.7,4.23c10.24,1.36,13.57,5.45,7.4,9.1l-19.24,11.35Z"/>
            <path class="cls-2" d="m1491.13,2394.9c-6.16,3.7-19.69,5.59-30.05,4.2l-32.06-4.3c-10.33-1.39-13.67-5.54-7.44-9.22l19.22-11.35c6.17-3.65,19.61-5.5,29.87-4.13l31.86,4.25c10.3,1.37,13.74,5.49,7.62,9.15l-19.02,11.41Z"/>
            <path class="cls-2" d="m1569.37,2405.39c-6.09,3.72-19.61,5.62-30.03,4.22l-32.23-4.33c-10.38-1.4-13.82-5.57-7.66-9.27l19-11.42c6.1-3.66,19.52-5.54,29.84-4.16l32.03,4.27c10.35,1.38,13.89,5.52,7.85,9.21l-18.8,11.48Z"/>
            <path class="cls-2" d="m1648.02,2415.93c-6.02,3.74-19.53,5.66-30,4.25l-32.4-4.36c-10.44-1.41-13.98-5.6-7.9-9.32l18.78-11.49c6.03-3.69,19.43-5.57,29.81-4.19l32.2,4.29c10.41,1.39,14.05,5.55,8.09,9.25l-18.58,11.55Z"/>
            <path class="cls-2" d="m1727.1,2426.53c-5.95,3.76-19.44,5.69-29.96,4.28l-32.58-4.38c-10.49-1.41-14.14-5.63-8.13-9.38l18.55-11.55c5.96-3.71,19.35-5.6,29.77-4.21l32.38,4.32c10.46,1.39,14.21,5.58,8.32,9.31l-18.35,11.62Z"/>
            <path class="cls-2" d="m1806.6,2437.19c-5.87,3.79-19.34,5.73-29.93,4.3l-32.75-4.4c-10.55-1.42-14.3-5.67-8.37-9.43l18.32-11.62c5.89-3.73,19.26-5.64,29.74-4.24l32.54,4.34c10.52,1.4,14.38,5.61,8.56,9.37l-18.12,11.68Z"/>
            <path class="cls-2" d="m1886.52,2447.91c-5.79,3.81-19.26,5.76-29.89,4.33l-32.93-4.42c-10.61-1.42-14.47-5.69-8.61-9.48l18.09-11.69c5.81-3.75,19.17-5.67,29.71-4.26l32.72,4.36c10.57,1.41,14.54,5.64,8.79,9.42l-17.89,11.75Z"/>
            <path class="cls-2" d="m1966.88,2458.68c-5.72,3.83-19.17,5.8-29.87,4.36l-33.11-4.45c-10.66-1.44-14.63-5.73-8.85-9.54l17.86-11.76c5.73-3.78,19.08-5.7,29.68-4.29l32.9,4.38c10.62,1.42,14.7,5.67,9.03,9.47l-17.66,11.82Z"/>
            <path class="cls-2" d="m2047.68,2469.51c-5.64,3.85-19.07,5.83-29.82,4.39l-33.29-4.47c-10.72-1.44-14.81-5.76-9.1-9.59l17.63-11.83c5.65-3.8,18.99-5.74,29.64-4.31l33.08,4.41c10.68,1.42,14.86,5.7,9.28,9.53l-17.42,11.89Z"/>
            <path class="cls-2" d="m2128.91,2480.4c-5.57,3.88-18.98,5.86-29.79,4.41l-33.46-4.5c-10.78-1.45-14.98-5.8-9.34-9.65l17.38-11.9c5.58-3.82,18.9-5.77,29.61-4.35l33.25,4.43c10.74,1.43,15.03,5.74,9.52,9.58l-17.17,11.96Z"/>
            <path class="cls-2" d="m2310.23,2504.71c-5.39,3.93-18.77,5.95-29.71,4.48l-133.93-17.99c-10.84-1.46-15.14-5.83-9.59-9.71l17.15-11.97c5.5-3.85,18.8-5.81,29.57-4.37l133.06,17.74c10.87,1.45,15.42,5.81,10.08,9.7l-16.63,12.12Z"/>
            <path class="cls-2" d="m1037.93,2300.92c-6.51,3.5-19.98,5.29-29.92,3.97l-111.14-14.8c-9.86-1.31-12.48-5.23-5.85-8.69l20.48-10.69c6.57-3.43,19.95-5.18,29.75-3.88l110.49,14.61c9.88,1.31,12.71,5.2,6.26,8.68l-20.08,10.81Z"/>
            <path class="cls-2" d="m1113.01,2310.9c-6.44,3.53-19.89,5.32-29.89,3.99l-30.93-4.11c-9.96-1.33-12.78-5.29-6.28-8.79l20.06-10.81c6.44-3.47,19.8-5.24,29.7-3.93l30.75,4.07c9.93,1.31,12.85,5.24,6.47,8.72l-19.87,10.87Z"/>
            <path class="cls-2" d="m1188.49,2320.93c-6.38,3.54-19.82,5.35-29.86,4.01l-31.09-4.14c-10.01-1.33-12.93-5.31-6.5-8.84l19.85-10.88c6.38-3.49,19.72-5.27,29.68-3.95l30.91,4.08c9.98,1.32,13,5.27,6.69,8.78l-19.67,10.93Z"/>
            <path class="cls-2" d="m1264.36,2331.01c-6.31,3.56-19.74,5.38-29.84,4.04l-31.25-4.16c-10.07-1.34-13.09-5.34-6.72-8.89l19.65-10.94c6.31-3.51,19.65-5.3,29.66-3.98l31.06,4.11c10.04,1.33,13.15,5.3,6.9,8.83l-19.46,10.99Z"/>
            <path class="cls-2" d="m1340.62,2341.15c-6.24,3.59-19.67,5.42-29.81,4.06l-31.42-4.18c-10.12-1.35-13.23-5.37-6.93-8.94l19.44-11c6.24-3.54,19.57-5.33,29.62-4l31.23,4.13c10.09,1.33,13.3,5.33,7.12,8.88l-19.25,11.05Z"/>
            <path class="cls-2" d="m1417.29,2351.34c-6.17,3.6-19.58,5.44-29.78,4.08l-31.58-4.2c-10.17-1.36-13.38-5.41-7.16-8.99l19.23-11.07c6.18-3.55,19.49-5.36,29.6-4.03l31.39,4.15c10.14,1.34,13.45,5.35,7.34,8.93l-19.04,11.12Z"/>
            <path class="cls-2" d="m1494.36,2361.59c-6.1,3.63-19.5,5.48-29.76,4.11l-31.75-4.23c-10.22-1.36-13.53-5.43-7.37-9.04l19.02-11.13c6.1-3.57,19.4-5.39,29.57-4.05l31.55,4.17c10.2,1.35,13.61,5.38,7.56,8.98l-18.82,11.18Z"/>
            <path class="cls-2" d="m1571.83,2371.88c-6.03,3.65-19.42,5.51-29.73,4.13l-31.92-4.25c-10.28-1.37-13.69-5.46-7.6-9.09l18.8-11.19c6.04-3.59,19.32-5.42,29.54-4.07l31.73,4.19c10.25,1.36,13.75,5.42,7.78,9.03l-18.6,11.25Z"/>
            <path class="cls-2" d="m1649.71,2382.23c-5.95,3.67-19.33,5.55-29.7,4.17l-32.08-4.27c-10.34-1.38-13.85-5.49-7.83-9.14l18.58-11.26c5.97-3.62,19.24-5.46,29.51-4.1l31.89,4.22c10.3,1.36,13.91,5.44,8.01,9.08l-18.39,11.31Z"/>
            <path class="cls-2" d="m1728,2392.64c-5.89,3.69-19.24,5.57-29.66,4.19l-32.26-4.3c-10.39-1.39-14.01-5.52-8.05-9.2l18.36-11.32c5.9-3.64,19.16-5.49,29.48-4.13l32.06,4.24c10.35,1.37,14.07,5.47,8.24,9.13l-18.17,11.38Z"/>
            <path class="cls-2" d="m1806.72,2403.1c-5.82,3.71-19.16,5.61-29.64,4.21l-32.43-4.32c-10.45-1.39-14.16-5.56-8.29-9.25l18.15-11.38c5.83-3.66,19.07-5.52,29.45-4.15l32.22,4.26c10.41,1.38,14.23,5.51,8.47,9.18l-17.94,11.45Z"/>
            <path class="cls-2" d="m1885.85,2413.62c-5.74,3.73-19.07,5.64-29.6,4.24l-32.59-4.34c-10.51-1.4-14.33-5.59-8.53-9.3l17.91-11.46c5.76-3.68,18.98-5.56,29.42-4.17l32.4,4.28c10.46,1.39,14.39,5.54,8.7,9.23l-17.71,11.52Z"/>
            <path class="cls-2" d="m1965.4,2424.2c-5.66,3.75-18.97,5.68-29.57,4.26l-32.77-4.36c-10.56-1.41-14.49-5.62-8.76-9.35l17.68-11.52c5.68-3.7,18.89-5.59,29.38-4.2l32.57,4.3c10.52,1.39,14.55,5.57,8.94,9.29l-17.48,11.58Z"/>
            <path class="cls-2" d="m2045.37,2434.83c-5.59,3.78-18.88,5.71-29.53,4.29l-32.95-4.39c-10.61-1.42-14.65-5.65-9-9.41l17.46-11.59c5.6-3.72,18.8-5.62,29.35-4.23l32.75,4.33c10.57,1.4,14.71,5.6,9.17,9.34l-17.25,11.65Z"/>
            <path class="cls-2" d="m2125.79,2445.51c-5.51,3.8-18.8,5.75-29.5,4.32l-33.12-4.41c-10.67-1.42-14.82-5.69-9.24-9.46l17.21-11.66c5.53-3.74,18.72-5.65,29.32-4.25l32.92,4.35c10.63,1.41,14.88,5.63,9.42,9.4l-17.01,11.71Z"/>
            <path class="cls-2" d="m2389.49,2550.03c-5.36,4.03-18.86,6.11-29.97,4.6l-34.39-4.66c-11.07-1.5-15.67-6.02-10.23-10.02l16.77-12.37c5.39-3.97,18.78-6,29.78-4.53l34.16,4.59c11.04,1.49,15.74,5.96,10.43,9.95l-16.55,12.44Z"/>
            <path class="cls-2" d="m2473.42,2561.38c-5.28,4.06-18.76,6.14-29.93,4.63l-34.58-4.69c-11.14-1.5-15.85-6.05-10.5-10.08l16.53-12.45c5.3-4,18.68-6.04,29.74-4.55l34.35,4.62c11.09,1.49,15.91,6,10.68,10.01l-16.29,12.51Z"/>
            <path class="cls-2" d="m2557.81,2572.78c-5.19,4.08-18.65,6.18-29.88,4.66l-34.78-4.71c-11.2-1.52-16.04-6.09-10.77-10.14l16.27-12.52c5.22-4.02,18.58-6.08,29.7-4.58l34.54,4.64c11.15,1.5,16.08,6.03,10.94,10.07l-16.03,12.59Z"/>
            <path class="cls-2" d="m2506.08,2461.85c-5.09,3.83-18.17,5.8-29.04,4.35l-33.64-4.44c-10.84-1.43-15.46-5.72-10.3-9.53l15.94-11.74c5.12-3.77,18.09-5.7,28.86-4.29l33.42,4.38c10.79,1.42,15.51,5.67,10.47,9.46l-15.72,11.81Z"/>
            <path class="cls-2" d="m2588.16,2472.67c-5.02,3.85-18.08,5.83-29,4.38l-33.82-4.47c-10.89-1.44-15.63-5.76-10.54-9.58l15.69-11.82c5.04-3.79,18.01-5.73,28.82-4.31l33.61,4.4c10.85,1.42,15.68,5.7,10.71,9.51l-15.46,11.88Z"/>
            <path class="cls-2" d="m2670.68,2483.54c-4.93,3.87-17.97,5.86-28.95,4.41l-34.01-4.49c-10.94-1.45-15.8-5.79-10.8-9.65l15.45-11.88c4.96-3.82,17.91-5.77,28.78-4.34l33.78,4.42c10.91,1.43,15.85,5.73,10.96,9.57l-15.22,11.95Z"/>
            <path class="cls-2" d="m2544.11,2433.27c-5.01,3.76-17.94,5.69-28.73,4.28l-33.39-4.38c-10.76-1.41-15.39-5.63-10.32-9.37l15.67-11.55c5.03-3.71,17.88-5.6,28.56-4.21l33.18,4.31c10.72,1.39,15.45,5.57,10.49,9.3l-15.46,11.61Z"/>
            <path class="cls-2" d="m2625.6,2443.92c-4.94,3.78-17.86,5.72-28.7,4.3l-33.57-4.4c-10.82-1.42-15.56-5.66-10.56-9.42l15.43-11.62c4.95-3.73,17.78-5.63,28.52-4.24l33.35,4.33c10.77,1.4,15.61,5.61,10.72,9.36l-15.2,11.68Z"/>
            <path class="cls-2" d="m2707.51,2454.63c-4.85,3.8-17.75,5.76-28.65,4.33l-33.75-4.42c-10.87-1.42-15.73-5.69-10.81-9.48l15.18-11.68c4.88-3.75,17.69-5.67,28.49-4.26l33.54,4.36c10.84,1.41,15.78,5.64,10.97,9.41l-14.96,11.75Z"/>
            <path class="cls-2" d="m2513.41,2530.07c-5.19,3.99-18.51,6.03-29.6,4.54l-34.31-4.61c-11.05-1.48-15.78-5.95-10.51-9.91l16.23-12.22c5.21-3.92,18.44-5.93,29.42-4.47l34.08,4.55c11.01,1.47,15.84,5.89,10.69,9.83l-15.99,12.29Z"/>
            <path class="cls-2" d="m2206.63,2456.26c-5.44,3.82-18.71,5.78-29.46,4.35l-33.3-4.43c-10.73-1.43-14.99-5.72-9.48-9.52l16.98-11.73c5.45-3.76,18.62-5.69,29.28-4.28l33.09,4.38c10.69,1.41,15.05,5.66,9.66,9.45l-16.76,11.79Z"/>
            <path class="cls-2" d="m2350.46,2475.38c-5.29,3.86-18.53,5.84-29.4,4.4l-96.07-12.8c-10.78-1.44-15.15-5.75-9.72-9.57l16.74-11.8c5.38-3.79,18.54-5.72,29.25-4.31l95.46,12.62c10.79,1.43,15.34,5.71,10.1,9.54l-16.34,11.91Z"/>
            <path class="cls-2" d="m1119.8,2279.15c-6.37,3.45-19.7,5.21-29.59,3.91l-30.64-4.05c-9.87-1.31-12.67-5.19-6.24-8.63l19.84-10.6c6.37-3.41,19.6-5.14,29.41-3.85l30.46,3.99c9.84,1.29,12.74,5.14,6.42,8.57l-19.66,10.66Z"/>
            <path class="cls-2" d="m1045.95,2269.41c-6.43,3.44-19.78,5.18-29.62,3.89l-69.3-9.15c-9.79-1.3-12.45-5.15-5.93-8.55l20.14-10.51c6.47-3.38,19.71-5.09,29.45-3.82l68.9,9.03c9.79,1.29,12.6,5.11,6.22,8.52l-19.86,10.6Z"/>
            <path class="cls-2" d="m1194.56,2289c-6.3,3.47-19.62,5.24-29.57,3.93l-30.8-4.07c-9.92-1.31-12.82-5.21-6.46-8.67l19.64-10.67c6.31-3.42,19.53-5.16,29.39-3.87l30.62,4.01c9.89,1.3,12.88,5.17,6.63,8.61l-19.46,10.72Z"/>
            <path class="cls-2" d="m1269.71,2298.91c-6.24,3.49-19.54,5.27-29.54,3.95l-30.96-4.09c-9.98-1.32-12.96-5.24-6.67-8.72l19.44-10.73c6.25-3.44,19.45-5.19,29.36-3.89l30.78,4.04c9.94,1.3,13.03,5.19,6.85,8.66l-19.26,10.78Z"/>
            <path class="cls-2" d="m1345.26,2308.86c-6.18,3.51-19.47,5.31-29.52,3.98l-31.12-4.11c-10.03-1.32-13.11-5.27-6.88-8.77l19.23-10.79c6.17-3.46,19.37-5.22,29.34-3.92l30.93,4.05c9.99,1.31,13.18,5.23,7.06,8.71l-19.05,10.84Z"/>
            <path class="cls-2" d="m1421.19,2318.87c-6.11,3.53-19.38,5.34-29.49,4l-31.28-4.13c-10.07-1.33-13.26-5.3-7.1-8.82l19.03-10.84c6.11-3.49,19.29-5.26,29.31-3.95l31.09,4.08c10.04,1.31,13.32,5.25,7.27,8.75l-18.84,10.91Z"/>
            <path class="cls-2" d="m1497.51,2328.92c-6.04,3.56-19.3,5.37-29.46,4.03l-31.45-4.15c-10.13-1.34-13.41-5.33-7.32-8.87l18.82-10.91c6.04-3.51,19.21-5.28,29.28-3.97l31.26,4.1c10.1,1.32,13.47,5.28,7.49,8.8l-18.63,10.96Z"/>
            <path class="cls-2" d="m1574.23,2339.04c-5.96,3.58-19.22,5.4-29.42,4.05l-31.61-4.17c-10.18-1.34-13.56-5.36-7.53-8.91l18.61-10.98c5.97-3.52,19.13-5.32,29.25-3.99l31.42,4.12c10.15,1.33,13.63,5.31,7.71,8.85l-18.42,11.03Z"/>
            <path class="cls-2" d="m1651.36,2349.2c-5.9,3.59-19.14,5.43-29.4,4.07l-31.77-4.2c-10.24-1.35-13.72-5.39-7.76-8.97l18.39-11.03c5.91-3.54,19.05-5.35,29.22-4.02l31.58,4.14c10.21,1.33,13.79,5.33,7.94,8.9l-18.2,11.1Z"/>
            <path class="cls-2" d="m1728.89,2359.42c-5.83,3.61-19.05,5.46-29.37,4.1l-31.94-4.22c-10.29-1.36-13.87-5.42-7.98-9.01l18.17-11.1c5.84-3.56,18.97-5.38,29.19-4.04l31.74,4.16c10.25,1.35,13.93,5.37,8.16,8.95l-17.98,11.16Z"/>
            <path class="cls-2" d="m1806.83,2369.69c-5.76,3.64-18.97,5.49-29.34,4.13l-32.1-4.24c-10.35-1.37-14.03-5.45-8.21-9.07l17.96-11.16c5.77-3.59,18.88-5.41,29.16-4.06l31.91,4.18c10.31,1.35,14.09,5.4,8.39,9.01l-17.76,11.22Z"/>
            <path class="cls-2" d="m1885.18,2380.02c-5.69,3.65-18.88,5.53-29.31,4.15l-32.28-4.26c-10.4-1.38-14.18-5.48-8.44-9.12l17.74-11.23c5.7-3.61,18.8-5.44,29.13-4.09l32.08,4.21c10.37,1.36,14.25,5.43,8.62,9.05l-17.54,11.29Z"/>
            <path class="cls-2" d="m1963.94,2390.4c-5.61,3.68-18.79,5.56-29.27,4.18l-32.45-4.29c-10.45-1.38-14.35-5.51-8.67-9.17l17.51-11.29c5.62-3.63,18.71-5.47,29.1-4.11l32.25,4.23c10.42,1.37,14.41,5.46,8.85,9.1l-17.31,11.36Z"/>
            <path class="cls-2" d="m2043.12,2400.83c-5.53,3.7-18.69,5.6-29.23,4.2l-32.62-4.31c-10.51-1.39-14.51-5.54-8.9-9.22l17.29-11.36c5.55-3.65,18.62-5.5,29.07-4.13l32.42,4.25c10.46,1.37,14.56,5.49,9.08,9.16l-17.09,11.42Z"/>
            <path class="cls-2" d="m2122.72,2411.33c-5.46,3.72-18.61,5.63-29.2,4.23l-32.8-4.33c-10.56-1.4-14.67-5.57-9.14-9.28l17.06-11.42c5.48-3.67,18.53-5.54,29.03-4.17l32.59,4.27c10.53,1.38,14.72,5.52,9.31,9.21l-16.85,11.49Z"/>
            <path class="cls-2" d="m2202.75,2421.87c-5.38,3.75-18.52,5.66-29.17,4.25l-32.97-4.35c-10.62-1.41-14.83-5.61-9.38-9.33l16.83-11.49c5.41-3.69,18.45-5.57,29-4.19l32.76,4.29c10.59,1.39,14.89,5.55,9.56,9.26l-16.62,11.55Z"/>
            <path class="cls-2" d="m2283.2,2432.48c-5.31,3.76-18.42,5.7-29.14,4.28l-33.15-4.38c-10.67-1.41-14.99-5.63-9.62-9.38l16.59-11.56c5.33-3.71,18.35-5.61,28.96-4.22l32.93,4.32c10.64,1.39,15.05,5.58,9.79,9.31l-16.38,11.62Z"/>
            <path class="cls-2" d="m2250.74,2350.63c-3.38,2.33-14.41,3.16-24.5,1.86l-31.22-4.04c-10.06-1.3-15.47-4.26-12.05-6.58l10.59-7.15c3.41-2.29,14.38-3.12,24.4-1.83l31.09,4c10.04,1.29,15.51,4.24,12.15,6.55l-10.46,7.19Z"/>
            <path class="cls-2" d="m2326.94,2360.48c-3.34,2.34-14.37,3.18-24.51,1.87l-31.38-4.06c-10.11-1.31-15.6-4.28-12.22-6.61l10.45-7.2c3.36-2.31,14.33-3.14,24.4-1.85l31.25,4.03c10.1,1.3,15.65,4.26,12.33,6.59l-10.32,7.23Z"/>
            <path class="cls-2" d="m2403.53,2370.37c-3.29,2.35-14.33,3.2-24.51,1.89l-31.53-4.08c-10.16-1.31-15.74-4.3-12.41-6.64l10.3-7.24c3.32-2.32,14.29-3.16,24.41-1.86l31.41,4.04c10.15,1.31,15.77,4.29,12.5,6.62l-10.17,7.27Z"/>
            <path class="cls-2" d="m2480.51,2380.32c-3.24,2.37-14.27,3.22-24.52,1.89l-31.69-4.1c-10.22-1.32-15.87-4.33-12.58-6.68l10.16-7.27c3.27-2.34,14.25-3.18,24.42-1.87l31.56,4.07c10.19,1.31,15.9,4.31,12.69,6.66l-10.04,7.31Z"/>
            <path class="cls-2" d="m2596.41,2395.29c-3.18,2.38-14.22,3.25-24.54,1.91l-31.93-4.13c-10.29-1.33-16.06-4.36-12.85-6.73l9.94-7.34c3.2-2.36,14.18-3.21,24.43-1.89l31.81,4.1c10.28,1.32,16.11,4.34,12.95,6.71l-9.81,7.37Z"/>
            <path class="cls-2" d="m2674.38,2405.37c-3.13,2.39-14.17,3.26-24.54,1.92l-32.1-4.16c-10.34-1.33-16.21-4.38-13.04-6.77l9.79-7.38c3.14-2.37,14.14-3.22,24.44-1.9l31.97,4.11c10.32,1.33,16.24,4.37,13.14,6.75l-9.66,7.42Z"/>
            <path class="cls-2" d="m2752.74,2415.49c-3.07,2.41-14.12,3.28-24.55,1.93l-32.27-4.17c-10.39-1.34-16.34-4.4-13.21-6.8l9.63-7.42c3.1-2.39,14.09-3.24,24.45-1.91l32.13,4.14c10.38,1.34,16.38,4.39,13.32,6.79l-9.5,7.45Z"/>
            <path class="cls-2" d="m1931.12,2309.32c-3.57,2.27-14.58,3.09-24.46,1.81l-30.56-3.95c-9.84-1.28-14.94-4.17-11.32-6.43l11.17-6.99c3.59-2.25,14.55-3.05,24.35-1.79l30.44,3.92c9.83,1.27,14.98,4.15,11.42,6.41l-11.05,7.02Z"/>
            <path class="cls-2" d="m2005.72,2318.97c-3.53,2.29-14.54,3.1-24.46,1.82l-30.72-3.98c-9.89-1.28-15.06-4.19-11.49-6.46l11.04-7.03c3.54-2.26,14.5-3.07,24.36-1.8l30.59,3.94c9.88,1.28,15.09,4.17,11.59,6.44l-10.92,7.06Z"/>
            <path class="cls-2" d="m2080.69,2328.65c-3.48,2.29-14.5,3.12-24.47,1.83l-30.87-3.99c-9.94-1.29-15.19-4.21-11.66-6.5l10.9-7.06c3.5-2.27,14.47-3.09,24.37-1.81l30.74,3.96c9.93,1.28,15.23,4.2,11.77,6.48l-10.78,7.1Z"/>
            <path class="cls-2" d="m2156.04,2338.39c-3.44,2.31-14.46,3.14-24.49,1.84l-31.02-4.01c-9.99-1.29-15.31-4.23-11.83-6.53l10.76-7.1c3.46-2.28,14.43-3.1,24.38-1.82l30.9,3.98c9.98,1.29,15.35,4.22,11.93,6.51l-10.64,7.14Z"/>
            <path class="cls-2" d="m1618.22,2268.89c-3.76,2.22-14.75,3.02-24.41,1.76l-29.92-3.87c-9.63-1.25-14.41-4.08-10.61-6.28l11.73-6.83c3.77-2.2,14.71-2.98,24.31-1.74l29.81,3.84c9.63,1.24,14.46,4.06,10.72,6.27l-11.61,6.86Z"/>
            <path class="cls-2" d="m1691.25,2278.33c-3.72,2.23-14.7,3.03-24.42,1.77l-30.07-3.89c-9.69-1.25-14.54-4.09-10.78-6.32l11.6-6.87c3.73-2.21,14.67-3,24.32-1.75l29.95,3.86c9.69,1.25,14.58,4.08,10.89,6.3l-11.49,6.9Z"/>
            <path class="cls-2" d="m1764.66,2287.81c-3.68,2.25-14.67,3.05-24.43,1.79l-30.22-3.91c-9.74-1.26-14.66-4.12-10.95-6.35l11.47-6.9c3.69-2.22,14.63-3.01,24.33-1.77l30.1,3.88c9.72,1.25,14.7,4.1,11.04,6.33l-11.35,6.94Z"/>
            <path class="cls-2" d="m1838.42,2297.35c-3.62,2.25-14.63,3.06-24.44,1.79l-30.37-3.93c-9.78-1.27-14.79-4.14-11.11-6.38l11.34-6.94c3.65-2.23,14.59-3.03,24.34-1.77l30.26,3.89c9.77,1.26,14.82,4.12,11.22,6.36l-11.22,6.98Z"/>
            <path class="cls-2" d="m1311.8,2229.29c-3.93,2.17-14.9,2.94-24.36,1.72l-29.31-3.79c-9.44-1.23-13.9-3.99-9.94-6.15l12.26-6.67c3.94-2.15,14.86-2.91,24.26-1.7l29.2,3.76c9.42,1.21,13.95,3.97,10.05,6.13l-12.16,6.7Z"/>
            <path class="cls-2" d="m1383.33,2238.53c-3.89,2.18-14.86,2.96-24.38,1.73l-29.45-3.81c-9.48-1.22-14.02-4.01-10.1-6.18l12.14-6.71c3.91-2.16,14.82-2.92,24.27-1.7l29.34,3.78c9.47,1.22,14.06,3.99,10.2,6.16l-12.03,6.74Z"/>
            <path class="cls-2" d="m1116.63,2204.07c-4.04,2.13-14.99,2.9-24.33,1.69l-28.91-3.74c-9.32-1.2-13.59-3.93-9.52-6.06l12.59-6.57c4.05-2.11,14.95-2.87,24.23-1.68l28.81,3.71c9.31,1.2,13.64,3.91,9.63,6.04l-12.5,6.61Z"/>
            <path class="cls-2" d="m1187.21,2213.19c-4,2.15-14.96,2.92-24.35,1.7l-29.06-3.76c-9.36-1.21-13.71-3.95-9.67-6.09l12.48-6.62c4.02-2.12,14.92-2.88,24.24-1.68l28.95,3.73c9.35,1.2,13.76,3.93,9.78,6.07l-12.37,6.64Z"/>
            <path class="cls-2" d="m1455.21,2247.82c-3.85,2.2-14.83,2.98-24.39,1.74l-29.59-3.83c-9.54-1.23-14.14-4.03-10.26-6.21l12.01-6.75c3.87-2.17,14.79-2.94,24.29-1.72l29.48,3.8c9.52,1.22,14.19,4.01,10.36,6.19l-11.9,6.77Z"/>
            <path class="cls-2" d="m1527.44,2257.16c-3.82,2.2-14.79,2.99-24.4,1.75l-29.74-3.85c-9.58-1.24-14.27-4.05-10.42-6.25l11.89-6.78c3.82-2.18,14.75-2.96,24.29-1.73l29.62,3.82c9.57,1.23,14.31,4.03,10.52,6.22l-11.77,6.81Z"/>
            <path class="cls-2" d="m2390.57,2446.63c-5.21,3.79-18.3,5.74-29.09,4.32l-59.82-7.9c-10.73-1.42-15.16-5.67-9.87-9.44l16.36-11.62c5.25-3.74,18.27-5.64,28.93-4.24l59.44,7.79c10.71,1.4,15.27,5.63,10.12,9.38l-16.07,11.71Z"/>
            <path class="cls-2" d="m1200.52,2257.68c-6.24,3.4-19.42,5.14-29.27,3.85l-30.51-4c-9.83-1.29-12.71-5.12-6.4-8.5l19.43-10.46c6.24-3.35,19.32-5.06,29.09-3.79l30.34,3.94c9.8,1.27,12.77,5.07,6.58,8.45l-19.25,10.52Z"/>
            <path class="cls-2" d="m1274.97,2267.4c-6.17,3.42-19.34,5.17-29.25,3.87l-30.67-4.01c-9.88-1.3-12.85-5.15-6.61-8.55l19.23-10.52c6.18-3.38,19.25-5.09,29.08-3.82l30.48,3.96c9.85,1.28,12.92,5.1,6.8,8.5l-19.06,10.57Z"/>
            <path class="cls-2" d="m1053.8,2238.5c-6.37,3.37-19.57,5.08-29.32,3.8l-30.21-3.96c-9.73-1.28-12.42-5.06-6-8.42l19.82-10.34c6.37-3.33,19.47-5.01,29.15-3.75l30.03,3.9c9.7,1.26,12.49,5.02,6.18,8.36l-19.64,10.4Z"/>
            <path class="cls-2" d="m1127.5,2248.13c-6.31,3.39-19.5,5.12-29.3,3.83l-30.36-3.97c-9.78-1.28-12.57-5.09-6.21-8.46l19.62-10.4c6.3-3.34,19.4-5.03,29.12-3.77l30.18,3.93c9.75,1.27,12.63,5.04,6.39,8.4l-19.45,10.46Z"/>
            <path class="cls-2" d="m1349.79,2277.19c-6.1,3.45-19.26,5.2-29.22,3.9l-30.82-4.03c-9.93-1.3-13-5.18-6.83-8.6l19.03-10.58c6.11-3.4,19.18-5.12,29.04-3.84l30.65,3.99c9.89,1.29,13.06,5.13,7,8.54l-18.86,10.63Z"/>
            <path class="cls-2" d="m1425.01,2287.01c-6.04,3.46-19.19,5.23-29.2,3.92l-30.98-4.06c-9.98-1.31-13.14-5.2-7.04-8.65l18.83-10.64c6.05-3.42,19.1-5.15,29.02-3.86l30.8,4c9.95,1.29,13.2,5.16,7.21,8.59l-18.65,10.69Z"/>
            <path class="cls-2" d="m1500.61,2296.9c-5.98,3.48-19.11,5.26-29.17,3.94l-31.14-4.08c-10.03-1.31-13.29-5.23-7.25-8.7l18.62-10.7c5.98-3.43,19.02-5.18,28.99-3.88l30.96,4.02c10,1.3,13.35,5.18,7.43,8.64l-18.44,10.76Z"/>
            <path class="cls-2" d="m1576.6,2306.82c-5.9,3.5-19.03,5.29-29.14,3.97l-31.31-4.1c-10.09-1.32-13.44-5.26-7.47-8.74l18.42-10.76c5.91-3.46,18.94-5.21,28.97-3.91l31.12,4.05c10.05,1.3,13.5,5.21,7.65,8.68l-18.24,10.81Z"/>
            <path class="cls-2" d="m1652.98,2316.81c-5.84,3.52-18.95,5.33-29.11,4l-31.46-4.12c-10.14-1.33-13.59-5.29-7.69-8.79l18.21-10.82c5.85-3.48,18.86-5.25,28.93-3.93l31.28,4.07c10.11,1.31,13.65,5.24,7.86,8.73l-18.02,10.88Z"/>
            <path class="cls-2" d="m1729.76,2326.84c-5.77,3.55-18.86,5.36-29.08,4.02l-31.63-4.14c-10.19-1.33-13.74-5.32-7.91-8.84l18-10.88c5.78-3.49,18.78-5.27,28.9-3.96l31.44,4.09c10.15,1.32,13.8,5.27,8.08,8.78l-17.81,10.94Z"/>
            <path class="cls-2" d="m1806.94,2336.93c-5.7,3.56-18.78,5.38-29.05,4.04l-31.79-4.16c-10.25-1.34-13.9-5.35-8.13-8.89l17.78-10.94c5.71-3.51,18.69-5.3,28.87-3.98l31.61,4.11c10.21,1.33,13.95,5.3,8.3,8.83l-17.59,11Z"/>
            <path class="cls-2" d="m1884.53,2347.07c-5.63,3.58-18.69,5.42-29.02,4.06l-31.96-4.19c-10.3-1.35-14.05-5.38-8.36-8.94l17.57-11.01c5.64-3.54,18.61-5.33,28.84-4l31.77,4.13c10.26,1.33,14.11,5.33,8.53,8.88l-17.37,11.07Z"/>
            <path class="cls-2" d="m1962.52,2357.26c-5.56,3.61-18.61,5.45-28.99,4.09l-32.13-4.21c-10.35-1.36-14.21-5.41-8.59-8.99l17.35-11.07c5.57-3.55,18.53-5.36,28.82-4.02l31.93,4.15c10.32,1.34,14.27,5.36,8.76,8.93l-17.15,11.13Z"/>
            <path class="cls-2" d="m2040.92,2367.51c-5.49,3.63-18.53,5.48-28.96,4.12l-32.3-4.23c-10.4-1.36-14.36-5.43-8.82-9.04l17.13-11.13c5.5-3.58,18.45-5.39,28.79-4.05l32.1,4.18c10.37,1.34,14.42,5.38,8.98,8.97l-16.92,11.19Z"/>
            <path class="cls-2" d="m2119.73,2377.81c-5.41,3.65-18.43,5.51-28.92,4.14l-32.47-4.25c-10.46-1.37-14.52-5.46-9.04-9.09l16.9-11.2c5.43-3.6,18.36-5.43,28.75-4.08l32.27,4.19c10.42,1.35,14.58,5.42,9.22,9.03l-16.7,11.26Z"/>
            <path class="cls-2" d="m2198.96,2388.16c-5.33,3.67-18.35,5.55-28.89,4.17l-32.64-4.27c-10.51-1.37-14.68-5.49-9.28-9.15l16.68-11.27c5.36-3.61,18.26-5.45,28.71-4.1l32.44,4.22c10.47,1.36,14.74,5.45,9.45,9.08l-16.47,11.32Z"/>
            <path class="cls-2" d="m2278.6,2398.57c-5.26,3.69-18.26,5.58-28.85,4.2l-32.82-4.3c-10.57-1.39-14.84-5.53-9.52-9.2l16.45-11.33c5.28-3.64,18.17-5.49,28.68-4.12l32.61,4.24c10.54,1.37,14.9,5.47,9.69,9.13l-16.24,11.38Z"/>
            <path class="cls-2" d="m2429.44,2418.29c-5.12,3.73-18.08,5.64-28.78,4.23l-103.79-13.59c-10.63-1.39-15.01-5.56-9.77-9.25l16.22-11.39c5.2-3.66,18.08-5.53,28.65-4.15l103.12,13.4c10.64,1.39,15.21,5.53,10.14,9.24l-15.79,11.51Z"/>
          </g>
          <g>
            <path class="cls-2" d="m2901.4,1159.73l-1752.89-232.44c-36.05-4.78-86.31,24.31-86.31,62.44l20.77,1054.62c0,38.13,29.49,73.24,65.54,78.02l1735.25,242.78c36.04,4.78,83.17-32.85,83.17-70.99v-1056.42c0-38.13-29.48-73.24-65.53-78.02Z"/>
            <g>
              <path class="cls-3" d="m2942.18,1247.56v1056.42c0,32.13-20.95,56.57-49.1,60.6-5.25.75-10.77.8-16.44.05l-1404.13-186.19-348.76-46.24c-.48-.07-.97-.13-1.45-.21-31.02-4.83-56.9-32.08-62.82-64.06-.84-4.51-1.27-9.1-1.27-13.74V997.75c0-38.13,29.48-65.42,65.53-60.64l961.06,127.44,694.69,92.11,97.14,12.88c36.05,4.77,65.54,39.88,65.54,78Z"/>
              <path class="cls-5" d="m2884.75,2361.46c-2.52,0-5.08-.17-7.62-.51l-1404.13-186.19-349.04-46.28c-.32-.04-.65-.09-.97-.15l-.11-.02c-28.9-4.5-54.02-30.18-59.73-61.07-.8-4.31-1.2-8.71-1.2-13.07V997.75c0-32.76,23.07-57.47,53.67-57.47,2.52,0,5.1.17,7.66.51l961.06,127.44,694.69,92.11,97.13,12.88c34.36,4.55,62.32,37.89,62.32,74.32v1056.42c0,29.64-18.88,53.05-45.91,56.92-2.56.37-5.19.55-7.8.55Z"/>
              <path class="cls-12" d="m2907.61,1287.83v951.61c0,17.09-13.89,29.13-30.98,26.87l-1065.52-141.29-687.36-91.14c-17.09-2.27-30.98-18-30.98-35.09v-951.61c0-17.09,13.89-29.13,30.98-26.87l683.87,90.67,997.83,132.33,71.19,9.43c17.09,2.27,30.98,18,30.98,35.09Z"/>
              <path class="cls-3" d="m2027.6,1098.87c0,16.01-12.27,27.36-27.4,25.36-15.14-2-27.41-16.62-27.41-32.63s12.27-27.36,27.4-25.35c15.14,2,27.41,16.61,27.41,32.62Z"/>
              <path class="cls-12" d="m2003.63,1120.75c-.97,0-1.96-.07-2.95-.2-13.33-1.77-24.18-14.75-24.18-28.95,0-12.47,8.7-21.87,20.24-21.87.97,0,1.96.07,2.96.2,13.33,1.77,24.18,14.75,24.18,28.94,0,12.47-8.71,21.88-20.25,21.88Z"/>
            </g>
          </g>
        </g>
        <g>
          <g>
            <path class="cls-7" d="m573.21,869.16c2.84-5.36,14.04-19.94,21.76-26.27,25.6-20.97,44.77-42.95,36.68-48.59-3.57-2.49-9.08,6.7-15.56,10.95-6.26,4.1-10.32,3.23-8.57-2.24,6.51-20.29,26.97-59.12,16-58.58-4.75.23-3.14-6.25-6.24-7.67-1.5-.69-2.03-.09-4.55.2-3.46.4-9.46,4.74-11.69,3.82-8.93-3.68-15.21,11.35-17.31,10.12-9.8-5.78-34.06,45.76-37.18,68.66-.83,6.09.68,22.57-1.37,29.39-7.96,26.42-29.03,67.09-50.05,104.46l40.38,14.91c9.59-37.05,25.95-77.01,37.69-99.17Z"/>
            <path class="cls-8" d="m499.4,951.84c25.68-45.88,42.03-80.21,48.61-102.04,1.37-4.57,1.3-12.49,1.24-19.48-.04-4.2-.07-8.17.23-10.36,3.28-24.09,25.31-66.55,32.6-66.55l.7.41,1.23.11c2.12,0,3.47-1.64,5.51-4.12,2.19-2.65,5.48-6.65,8.69-6.65.57,0,1.13.12,1.71.36.56.23,1.19.35,1.86.35,2,0,4.28-1.06,6.69-2.19,1.66-.77,3.55-1.66,4.6-1.78.94-.11,1.63-.25,2.2-.37.28-.06.49-.12.7-.13.23.24.55,1.28.73,1.9.65,2.14,1.86,6.1,6.56,6.1h.38c1.49,3.78-6.11,22.21-10.68,33.32-3.25,7.89-6.32,15.34-8.27,21.41-.87,2.72-.71,4.93.48,6.56.98,1.35,2.57,2.09,4.46,2.09,2.27,0,4.98-1.02,8.06-3.05,2.7-1.77,5.17-4.24,7.35-6.42,1.62-1.61,4.01-4.01,5.12-4.42.24.23.39.54.41,1.11.22,5.57-11.42,21.28-37.47,42.62-7.78,6.38-19.35,21.23-22.5,27.17-11.08,20.91-27.21,59.69-37.11,96.65l-34.09-12.59Z"/>
            <polygon class="cls-7" points="619.65 740.79 595.61 797.01 616.91 739.69 619.65 740.79"/>
            <polygon class="cls-7" points="604.53 743.28 583.26 791.63 601.8 742.17 604.53 743.28"/>
            <polygon class="cls-7" points="586.26 752.68 567.94 794.35 583.53 751.58 586.26 752.68"/>
          </g>
          <g>
            <path class="cls-7" d="m978.31,925.68c1.28-5.93,2.07-24.3.23-34.11-6.12-32.52-6.67-61.68,3.16-60.79,4.34.39,2.65,10.97,4.88,18.39,2.16,7.17,5.83,9.11,8,3.8,8.06-19.73,17.36-62.62,25.42-55.15,3.49,3.23,6.43-2.77,9.71-1.87,1.59.44,1.62,1.24,3.35,3.08,2.4,2.53,4.2,9.71,6.5,10.44,9.2,2.92,4.34,18.47,6.75,18.88,11.22,1.88-3.34,56.94-15.68,76.49-3.28,5.2-15.03,16.85-17.85,23.38-10.89,25.36-20.91,70.05-28.85,112.18l-40.51-14.54c16.49-34.54,29.65-75.66,34.91-100.17Z"/>
            <path class="cls-8" d="m981.66,1036.46c9.84-51.66,19.39-88.45,28.4-109.41,1.89-4.38,7.04-10.4,11.58-15.72,2.73-3.19,5.31-6.21,6.49-8.08,12.98-20.56,23.42-67.24,17.83-71.93l-.79-.13-1.01-.71c-1.62-1.36-1.6-3.49-1.57-6.7.03-3.43.08-8.62-2.38-10.68-.44-.36-.94-.63-1.54-.83-.58-.18-1.14-.5-1.65-.93-1.53-1.28-2.59-3.56-3.71-5.98-.78-1.66-1.65-3.55-2.38-4.32-.65-.69-1.09-1.24-1.45-1.7-.18-.22-.3-.41-.45-.55-.33.03-1.24.62-1.78.98-1.87,1.22-5.35,3.48-8.95.46l-.29-.25c-3.58,1.94-9.61,20.94-13.25,32.39-2.58,8.13-5.03,15.81-7.43,21.7-1.08,2.65-2.63,4.24-4.59,4.72-1.62.4-3.31-.05-4.75-1.27-1.73-1.46-3.15-3.99-4.21-7.52-.93-3.09-1.23-6.57-1.5-9.64-.2-2.28-.49-5.65-1.08-6.67-.33.02-.64.16-1.03.59-3.74,4.13-4.94,23.64,1.29,56.73,1.85,9.89,1.17,28.7-.24,35.27-4.97,23.14-17.55,63.21-33.74,97.88l34.21,12.28Z"/>
            <polygon class="cls-7" points="1025.29 797.49 1007.55 856.01 1028.1 798.42 1025.29 797.49"/>
            <polygon class="cls-7" points="1035.28 809.13 1020.47 859.83 1038.08 810.03 1035.28 809.13"/>
            <polygon class="cls-7" points="1043.22 828.07 1030.45 871.77 1046.02 828.99 1043.22 828.07"/>
          </g>
          <g>
            <g>
              <path class="cls-3" d="m535.76,2483.54c0,10.27-9.21,18.6-20.57,18.6h0c-11.36,0-20.57-8.33-20.57-18.6v-52.34c0-10.27,9.21-18.6,20.57-18.6h0c11.36,0,20.57,8.33,20.57,18.6v52.34Z"/>
              <path class="cls-9" d="m515.19,2499.19c-9.71,0-17.62-7.02-17.62-15.65v-52.34c0-8.63,7.91-15.65,17.62-15.65s17.62,7.02,17.62,15.65v52.34c0,8.63-7.91,15.65-17.62,15.65Z"/>
            </g>
            <g>
              <path class="cls-3" d="m564.54,2528.74c-.09-.94-.27-1.95-.53-2.95-.38-1.54-.97-3.12-1.77-4.81,0,0-19.76-47.32-23.11-50.39-3.36-3.07-15.55-7.37-25.19-7.37-7.23,0-26.7,4.41-28.69,8.4-5.99,12.02-14.61,35.62-21.83,49.84-.56,1.12-1.03,2.18-1.39,3.19-.38,1-.65,1.95-.82,2.83-2.09,9.79,5.52,15.22,17.96,18.82,22.59,6.52,46.18,3.57,67.06,0,12.09-2.06,19.29-8.11,18.32-17.55Zm-3.98,6.43c-2.12,4.07-7.25,6.9-14.83,8.2-11.06,1.89-24.09,3.83-37.1,3.83-10.53,0-19.91-1.24-28.64-3.75-8.76-2.53-13.83-5.63-15.51-9.55-.74-1.68-.88-3.59-.41-5.78,14.54,3.33,30.23-1.49,51.14-1.49,13.92,0,32.21,6.6,46.45,2.88.15,2.12-.2,4.01-1.09,5.66Z"/>
              <path class="cls-13" d="m518.85,2524.05c-21.55,0-41.15,4.16-53.92,1.24.3-.78.66-1.59,1.12-2.52,3.91-7.69,8.16-17.94,12.27-27.86,3.51-8.47,6.83-16.48,9.57-21.98,1.85-2.4,18.44-6.76,26.04-6.76,9.39,0,20.67,4.28,23.2,6.6,2.3,2.59,14.48,30.43,22.38,49.35.78,1.66,1.3,3.05,1.63,4.39,0,.03.01.05.02.08l-.27.07c-12.73,3.33-26.93-2.6-42.05-2.6Z"/>
              <path class="cls-9" d="m560.56,2535.17c-2.12,4.07-7.25,6.9-14.83,8.2-11.06,1.89-24.09,3.83-37.1,3.83-10.53,0-19.91-1.24-28.64-3.75-8.76-2.53-13.83-5.63-15.51-9.55-.74-1.68-.88-3.59-.41-5.78,14.54,3.33,33.94,6.49,54.85,6.49,13.92,0,28.49-1.38,42.73-5.1.15,2.12-.2,4.01-1.09,5.66Z"/>
            </g>
          </g>
          <g>
            <g>
              <path class="cls-3" d="m834.11,2481.4c0,10.86-8.8,19.66-19.66,19.66h0c-10.86,0-19.66-8.8-19.66-19.66v-41.14c0-10.86,8.8-19.66,19.66-19.66h0c10.86,0,19.66,8.8,19.66,19.66v41.14Z"/>
              <path class="cls-9" d="m814.44,2498.11c-9.21,0-16.71-7.5-16.71-16.71v-41.14c0-9.21,7.5-16.71,16.71-16.71s16.71,7.5,16.71,16.71v41.14c0,9.21-7.5,16.71-16.71,16.71Z"/>
            </g>
            <g>
              <path class="cls-3" d="m924.31,2524.1c-1.03-4.04-4.16-8.4-9.41-12.15,0,0-13.51-6.54-29.52-15.72-.86-.47-1.71-.97-2.57-1.5-3.07-1.77-6.2-3.63-9.32-5.57-.85-.53-1.68-1.03-2.54-1.56-2.42-1.54-4.81-3.1-7.16-4.69-.83-.53-1.65-1.09-2.48-1.68-7.43-5.1-14.25-10.38-19.26-15.4-3.6-3.63-3.98-.97-7.96,3.39-.82.88-1.77,1.83-2.95,2.8-3.24,2.77-8.08,5.78-15.78,8.23-4.33,1.39-11.47-1.89-17.64-3.48-1-.23-2.01-.47-2.95-.59-3.33-.53-6.16-.12-7.67,2.51l-17.64,30.55c-.06.09-.08.18-.15.26-.53.95-1,1.86-1.41,2.77-6.43,14.22,1.12,25.39,17.99,25.39h123.84c10.03,0,15.04-4.69,14.98-10.65,0-.94-.15-1.92-.42-2.92Zm-2.83,5.01c-1.15,3.57-5.43,5.6-11.74,5.6h-123.84c-7.64,0-13.24-2.45-15.81-6.87-2.3-3.95-1.98-9.26.89-15.1,63.14,9.67,110.56,14.57,141.53,14.57,3.28,0,6.34-.06,9.26-.15,0,.68-.09,1.33-.3,1.94Z"/>
              <path class="cls-9" d="m921.78,2527.16c0,.68-.09,1.33-.3,1.94-1.15,3.57-5.43,5.6-11.74,5.6h-123.84c-7.64,0-13.24-2.45-15.81-6.87-2.3-3.95-1.98-9.26.89-15.1,63.14,9.67,110.56,14.57,141.53,14.57,3.28,0,6.34-.06,9.26-.15Z"/>
              <path class="cls-13" d="m921.78,2527.16c-2.92.09-5.99.15-9.26.15-30.97,0-78.39-4.9-141.53-14.57.29-.68.68-1.36,1.06-2.04l.41-.74,17.22-29.82c.38-.65.97-1.24,2.86-1.24.68,0,1.44.09,2.24.23.92.15,1.92.39,2.95.68,1.36.38,2.77.82,4.16,1.27,3.78,1.18,7.67,2.42,11.06,2.42,1.24,0,2.3-.15,3.3-.47,6.75-2.16,11.5-4.75,14.89-7.25,1.12-.83,2.09-1.65,2.95-2.42,2.01-1.83,3.39-3.54,4.42-4.81.3-.38.65-.82.94-1.15.15.12.33.3.5.5,5.1,5.13,11.94,10.44,19.41,15.6.83.56,1.68,1.12,2.54,1.71,2.36,1.59,4.81,3.16,7.25,4.72.86.53,1.71,1.06,2.6,1.59,3.04,1.89,6.07,3.71,9.05,5.46.89.53,1.8,1.06,2.68,1.56,14.95,8.61,27.81,14.93,29.91,15.96,4.04,2.95,6.81,6.46,7.88,9.7.35,1.03.53,2,.5,2.95Z"/>
              <path class="cls-3" d="m924.73,2527.02c-.97.06-1.95.09-2.95.15-2.92.09-5.99.15-9.26.15-30.97,0-78.39-4.9-141.53-14.57-1.01-.15-2.04-.33-3.07-.47.41-.91.88-1.83,1.41-2.77,1.06.17,2.09.33,3.13.47,68.89,10.56,118.79,15.33,148.82,14.24,1.03-.03,2.03-.06,3.03-.12l.42,2.92Z"/>
              <path class="cls-3" d="m863.8,2482.9c-7.17,10.65-23.86,11-26.16,11h-.24c-.8,0-1.45-.68-1.45-1.5s.65-1.39,1.5-1.45c.21,0,17.14.12,23.86-9.73.83.59,1.65,1.15,2.48,1.68Z"/>
              <path class="cls-3" d="m873.5,2489.16c-6.84,11.35-24.27,11.74-26.63,11.74h-.24c-.8,0-1.45-.68-1.45-1.51s.65-1.38,1.51-1.44c.2,0,17.84.12,24.27-10.35.85.53,1.68,1.03,2.54,1.57Z"/>
              <path class="cls-3" d="m885.39,2496.23c-7.14,10.62-23.83,11-26.13,11h-.24c-.8-.03-1.45-.71-1.45-1.5s.65-1.38,1.5-1.45c.21-.03,16.93.09,23.74-9.55.85.53,1.71,1.03,2.56,1.51Z"/>
            </g>
          </g>
          <path class="cls-13" d="m558.99,1615.19s-17.09,82.86-18.72,180.45c-1.69,100.6-13.94,267.08-20.97,324.37-9.88,80.45-42.96,314.1-42.96,314.1,0,0,18.88,10.49,38.26,14.92,25.81,5.9,44.39,1.62,44.39,1.62,0,0,76.39-324.95,92.3-419.43,12.05-71.61,34.68-198.75,34.68-198.75,0,0,65.61,157.65,76.68,235.93,12.63,89.41.22,382.24.22,382.24,0,0,28.37,6.41,53.85,6.41,22.12,0,45.34-6.41,45.34-6.41,0,0,26.71-357.36,12.08-459.32-5.94-41.42-13.79-115.17-38.14-186.46-33.17-97.13-65.99-193.84-65.99-193.84l-211.02,4.17Z"/>
          <path class="cls-7" d="m624.66,1237.56c-14.15-14.15,3-60.27,0-80.06-2.94-19.38-20.31-55.5-23.25-74.88-2.71-17.87-10.74-57.77,0-72.31,7.82-10.59,37.21-14.65,50.36-15.49,15.09-.96,49.17-.61,59.61,10.32,8.4,8.8,10.13,29.47,8.9,51.99-.11,1.99-2.22,6.84-2.37,8.84-.51,6.79,1.64,18.88.75,25.57-2.72,20.5-9.36,31.78-11.81,41.27-2.98,11.53-13.61,4.72-20.04,14.74-10.15,15.83-9.55,53.37-12.15,71.99-.63,4.48-2.91,14.83-6.1,18.03-7.77,7.76-36.14,7.76-43.9,0Z"/>
          <path class="cls-8" d="m646.61,1240.43c-8.92,0-16.9-1.99-19.86-4.96-7.73-7.73-4.5-28.52-1.64-46.87,1.89-12.14,3.67-23.6,2.47-31.55-1.52-9.98-6.73-24.23-11.77-38.01-4.94-13.51-10.05-27.48-11.48-36.88-.29-1.92-.64-4.1-1.03-6.46-2.93-18.06-8.37-51.67.48-63.65,6.89-9.33,34.52-13.43,48.17-14.3,2.44-.15,6.4-.34,11.44-.34,22.88,0,40.02,3.65,45.86,9.76,6.69,7.01,9.49,24.23,8.09,49.79-.04.62-.65,2.49-1.05,3.73-.62,1.91-1.21,3.71-1.31,5.06-.25,3.36.08,7.65.43,12.2.38,4.87.77,9.91.33,13.2-1.8,13.57-5.38,23.03-8.25,30.65-1.43,3.78-2.67,7.06-3.49,10.26-1.15,4.43-3.34,4.99-7.32,6-3.88.98-8.71,2.21-12.35,7.89-7.8,12.17-9.53,35.84-10.92,54.87-.5,6.87-.97,13.36-1.67,18.31-.74,5.26-3.04,14.12-5.27,16.35-2.96,2.96-10.95,4.96-19.86,4.96Z"/>
          <path class="cls-7" d="m969.51,934.69c-25.84,43.7-66.14,167.48-107.45,209.38-27.99,28.39-91.81,68.73-140.94,76.02-10.64,1.58-20.3-1.91-25.6-6.39-3.12-2.63-4.87-9.52-5.84-15.84-1-6.54-1.79-12.21-4.86-11.59-15.74,3.17-9.11,9.06-41.71,7.68-22.31-.94-29.45-12.48-38.5-8.56-2.17.94-1.39,4.3-3.02,8.95-1.41,4.03-3,8.32-4.02,10.34-1.93,3.82-5.39,6.58-9.76,8.71-19.94-54.5-55.59-88.13-61.87-121.67-10.21-54.51,29.47-155.06,55.1-214.9,10.48-24.46-55.19-35.4-62.01-9.68-20.42,76.99-76.66,164.37-67.48,221.83,8.5,53.16,39.95,123.69,68.1,195.33,18.93,48.19,32.92,127.83,34.76,160.44,1.63,28.95-3.24,92.33-7.28,137.34-2.58,28.75-12.08,39.75-4.83,50.01,17.02,24.05,63.95,31.83,116.95,31.83,59.07,0,104.9-2.82,122.97-27.88,7.23-10.03-3.07-20.81-6.84-48.96-5.97-44.65-13.69-107.8-13.69-135.91,0-32.06,3.72-104.34,33.23-144.25,11.89-16.09,45-48.78,56.03-57.06,42.9-32.23,83.86-75.98,109.31-118.95,23.04-38.89,46.66-109.3,64.19-169.04,4.46-15.2-46.87-40.82-54.93-27.18Z"/>
          <path class="cls-10" d="m659.23,1660.97c-61.65,0-100.18-10.3-114.54-30.58-3.38-4.77-2.35-9.63.29-20.16,1.78-7.11,4-15.95,5.07-27.88,4.22-46.95,8.91-108.97,7.29-137.76-1.94-34.45-16.52-114.43-34.96-161.35-5.36-13.65-10.84-27.26-16.26-40.71-23.06-57.24-44.83-111.3-51.67-154.01-5.62-35.2,13.98-82.14,34.75-131.83,12.29-29.43,25.01-59.86,32.68-88.77,2.46-9.26,14.58-12.56,25.11-12.56,13.42,0,26.32,4.79,30.67,11.4,1.83,2.77,2.05,5.69.67,8.92-44.88,104.76-62.97,175.61-55.29,216.61,3.27,17.46,14.05,34.63,26.53,54.5,12.04,19.18,25.7,40.92,35.47,67.64l1.13,3.07,2.94-1.44c5.39-2.63,9.01-5.92,11.1-10.03.92-1.83,2.32-5.43,4.17-10.69.73-2.09,1.03-3.9,1.26-5.35.11-.67.25-1.55.39-1.97.8-.32,1.58-.47,2.43-.47,2.4,0,5.2,1.24,8.74,2.8,5.8,2.56,13.75,6.06,25.78,6.57,3.38.14,6.34.21,8.95.21,14.75,0,18.99-2.14,23.47-4.41,2.48-1.25,4.83-2.44,9.43-3.42.77,1.42,1.41,5.65,1.86,8.53l.08.5c1.41,9.18,3.65,14.95,6.86,17.65,5.53,4.67,13.86,7.47,22.27,7.47,1.89,0,3.8-.14,5.66-.42,51.09-7.58,115.65-49.51,142.61-76.87,27.02-27.41,52.86-87.58,75.65-140.66,12.42-28.94,23.16-53.93,32.24-69.29,1.18-2,4.25-2.42,6.62-2.42,12.3,0,33.21,10.56,40.69,20.53,1.39,1.86,2.91,4.53,2.26,6.74-16.06,54.7-40.18,128.32-63.9,168.37-24.42,41.23-65,85.38-108.55,118.09-11.01,8.26-44.41,41.12-56.63,57.66-30.51,41.27-33.81,115.85-33.81,146,0,27.88,7.46,89.51,13.72,136.3,1.56,11.67,4.2,20.32,6.31,27.28,3.12,10.26,4.36,14.99,1.06,19.57-17.78,24.65-65.11,26.66-120.53,26.66h-.05Z"/>
          <path class="cls-15" d="m736.8,1003.32c-3.25-24.02-32.24-34.02-49.76-37.32-28.05-5.27-54.68.94-73.67,12.41-14.65,8.84-23.82,23.05-28.8,38.61-11.95,37.35,8.05,83.31,18.85,119.68,7.38,24.88,20.68,30.53,48.37,20.73,16.56-5.86,8-1.69,25.57-10.37,10.6-5.23,11.66-40.67,11.74-52.52.13-17.9,11.69-14.22,17.6-27.44,6.77-15.13,33.54-38.22,30.09-63.79Z"/>
        </g>
        <g>
          <path class="cls-3" d="m2493.17,2190.94c0,9.5-7.61,16.24-16.91,14.99l-949.25-128.28c-9.3-1.26-16.9-10.06-16.9-19.56V492.54c0-9.5,7.61-16.24,16.9-14.99l949.25,128.28c9.3,1.26,16.91,10.06,16.91,19.55v1565.56Z"/>
          <path class="cls-9" d="m1527.02,2075c-7.89-1.07-14.3-8.49-14.3-16.55V492.89c0-8.06,6.42-13.75,14.3-12.68l949.25,128.28c7.89,1.06,14.3,8.49,14.3,16.55v1565.56c0,8.06-6.42,13.75-14.3,12.68l-949.25-128.28Z"/>
          <path class="cls-3" d="m1811.2,937.38c0,3.29-2.63,5.62-5.85,5.19l-239.97-32.43c-3.22-.44-5.85-3.48-5.85-6.77v-324.64c0-3.29,2.63-5.62,5.85-5.19l239.97,32.43c3.22.44,5.85,3.48,5.85,6.77v324.64Z"/>
          <g class="cls-16">
            <path class="cls-9" d="m1565.38,907.49c-1.79-.24-3.25-1.93-3.25-3.76v-324.64c0-1.83,1.46-3.12,3.25-2.88l239.97,32.43c1.79.24,3.25,1.93,3.25,3.76v324.64c0,1.83-1.46,3.12-3.25,2.88l-239.97-32.43Z"/>
            <g>
              <path class="cls-3" d="m1800.95,929.72c0,36.1-49.36,62.97-110.25,54.75-60.89-8.23-110.25-44.16-110.25-80.26s49.36-58.69,110.25-50.47c60.89,8.23,110.25,39.89,110.25,75.98Z"/>
              <path class="cls-5" d="m1690.69,982.13c-59.54-8.05-107.97-42.87-107.97-77.62s48.43-56.49,107.97-48.44c61.55,8.32,107.97,39.85,107.97,73.34,0,16.65-11.38,32.02-31.23,42.17-20.87,10.67-48.12,14.42-76.74,10.55Z"/>
              <g>
                <path class="cls-15" d="m1663.82,655.81c-8.87,2.13-93.79,12.6-100.78,81.97-4.37,43.36,60.49,56.77,102.85,64,47.07,8.03,62.73-5,73.61-26.76,3.8-7.6,9.43-27.28,8.78-36.34-1.53-21.4,4.35-25.62-13.81-55.35-13.21-21.63-42.26-34.32-70.64-27.51Z"/>
                <path class="cls-3" d="m1753.87,872.1s-36.23,27.91-65.15,24.01c-27.6-3.73-58.46-39.98-58.46-39.98,0,0,35.03-4.12,35.43-8.92,2.12-25.28,17.22-85.42,17.22-85.42l16.7,2.26s10.41,64.91,12.87,90.61c.49,5.12,41.39,17.45,41.39,17.45Z"/>
                <path class="cls-9" d="m1688.73,892.83c-20.19-2.73-42.83-24.48-52-34.12,31.61-4.2,32-8.77,32.16-10.79,1.84-21.89,13.73-71.06,16.54-82.51l11.46,1.55c2.01,12.72,10.26,65.32,12.39,87.58.21,2.16.68,7.06,37.11,18.58-10.95,7.33-36.66,22.54-57.67,19.7Z"/>
                <path class="cls-3" d="m1697.21,804.13c-8.29,1.83-33.8,2.75-51.26-36.73-1.51-3.45-7.9-1.82-13.37-12.54-6.01-11.81,8.16-5.92,7.65-8.98-.99-5.91-1.41-11.62-1.22-16.91,5.59-2.2,11.18-3.12,18.22-4.46,8.9-1.69,14.33-6.63,20.41-13,3.76-3.99,8.39-3.56,14.62.37.32,9.53,6.33,22.91,21.17,22.82.77,3.85,1.67,17.07,1.99,23.51,1.51,31.06-8.84,43.88-18.22,45.93Z"/>
                <path class="cls-9" d="m1685.91,801.2c-10.51-1.42-25.47-8.62-37.06-34.84-1.13-2.59-3.4-3.68-5.22-4.55-2.52-1.21-5.38-2.59-8.24-8.18-1.21-2.38-1.07-3.15-1.07-3.15.34-.2,2.29-.22,3.22-.23,2.05-.02,3.99-.04,5.18-1.55.63-.8.87-1.85.68-2.97-.84-4.99-1.25-9.78-1.22-14.28,4.2-1.46,8.51-2.27,13.8-3.27l2.23-.42c9.83-1.86,15.72-7.35,21.86-13.79,1.48-1.57,2.96-2.15,4.83-1.9,1.23.17,2.65.69,4.29,1.58,1.1,10.76,7.9,22.34,21.05,24.12.15.02.31.04.46.06.59,5.1,1.22,14.25,1.51,20.1,1.4,28.81-7.78,41.14-16.06,42.95-1.79.4-5.49.96-10.25.32Z"/>
              </g>
            </g>
          </g>
          <g>
            <path class="cls-5" d="m2398.01,1124.39c0,2.98-3.49,4.92-7.8,4.34l-503.13-67.99c-4.31-.58-7.8-3.47-7.8-6.45v-11.02c0-2.98,3.49-4.92,7.8-4.34l503.13,67.99c4.31.58,7.8,3.47,7.8,6.45v11.02Z"/>
            <path class="cls-5" d="m2398.01,1193.9c0,2.98-3.49,4.92-7.8,4.34l-503.13-67.99c-4.31-.58-7.8-3.47-7.8-6.45v-11.02c0-2.98,3.49-4.92,7.8-4.34l503.13,67.99c4.31.58,7.8,3.47,7.8,6.45v11.02Z"/>
            <path class="cls-5" d="m2398.01,1263.4c0,2.98-3.49,4.92-7.8,4.34l-503.13-67.99c-4.31-.58-7.8-3.47-7.8-6.45v-11.02c0-2.98,3.49-4.92,7.8-4.34l503.13,67.99c4.31.58,7.8,3.47,7.8,6.45v11.02Z"/>
            <path class="cls-5" d="m2398.01,1332.9c0,2.98-3.49,4.92-7.8,4.34l-503.13-67.99c-4.31-.58-7.8-3.47-7.8-6.45v-11.02c0-2.98,3.49-4.92,7.8-4.34l503.13,67.99c4.31.58,7.8,3.47,7.8,6.45v11.02Z"/>
            <path class="cls-5" d="m2398.01,1402.41c0,2.98-3.49,4.92-7.8,4.34l-503.13-67.99c-4.31-.58-7.8-3.47-7.8-6.45v-11.02c0-2.98,3.49-4.92,7.8-4.34l503.13,67.99c4.31.58,7.8,3.47,7.8,6.45v11.02Z"/>
            <path class="cls-5" d="m2398.01,1471.91c0,2.98-3.49,4.92-7.8,4.34l-503.13-67.99c-4.31-.58-7.8-3.47-7.8-6.45v-11.02c0-2.98,3.49-4.92,7.8-4.34l503.13,67.99c4.31.58,7.8,3.47,7.8,6.45v11.02Z"/>
            <path class="cls-5" d="m2398.01,1541.41c0,2.98-3.49,4.92-7.8,4.34l-503.13-67.99c-4.31-.58-7.8-3.47-7.8-6.45v-11.02c0-2.98,3.49-4.92,7.8-4.34l503.13,67.99c4.31.58,7.8,3.47,7.8,6.45v11.02Z"/>
            <path class="cls-5" d="m2398.01,1610.92c0,2.98-3.49,4.92-7.8,4.34l-503.13-67.99c-4.31-.58-7.8-3.47-7.8-6.45v-11.02c0-2.98,3.49-4.92,7.8-4.34l503.13,67.99c4.31.58,7.8,3.47,7.8,6.45v11.02Z"/>
            <path class="cls-5" d="m2398.01,1680.42c0,2.98-3.49,4.92-7.8,4.34l-503.13-67.99c-4.31-.58-7.8-3.47-7.8-6.45v-11.02c0-2.98,3.49-4.92,7.8-4.34l503.13,67.99c4.31.58,7.8,3.47,7.8,6.45v11.02Z"/>
            <path class="cls-5" d="m2398.01,1749.92c0,2.98-3.49,4.92-7.8,4.34l-503.13-67.99c-4.31-.58-7.8-3.47-7.8-6.45v-11.02c0-2.98,3.49-4.92,7.8-4.34l503.13,67.99c4.31.58,7.8,3.47,7.8,6.45v11.02Z"/>
            <path class="cls-5" d="m2398.01,1819.43c0,2.98-3.49,4.92-7.8,4.34l-503.13-67.99c-4.31-.58-7.8-3.47-7.8-6.45v-11.02c0-2.98,3.49-4.92,7.8-4.34l503.13,67.99c4.31.58,7.8,3.47,7.8,6.45v11.02Z"/>
            <path class="cls-5" d="m2398.01,1888.93c0,2.98-3.49,4.92-7.8,4.34l-503.13-67.99c-4.31-.58-7.8-3.47-7.8-6.45v-11.02c0-2.98,3.49-4.92,7.8-4.34l503.13,67.99c4.31.58,7.8,3.47,7.8,6.45v11.02Z"/>
          </g>
          <path class="cls-5" d="m1725.1,1144.47c0,4.4-3.49,7.5-7.8,6.92l-118.83-16.06c-4.31-.58-7.8-4.62-7.8-9.03v-121.4c0-4.4,3.49-7.5,7.8-6.92l118.83,16.06c4.31.58,7.8,4.62,7.8,9.02v121.4Z"/>
          <path class="cls-5" d="m1725.1,1342.24c0,4.4-3.49,7.5-7.8,6.91l-118.83-16.06c-4.31-.58-7.8-4.62-7.8-9.03v-121.4c0-4.4,3.49-7.5,7.8-6.92l118.83,16.06c4.31.58,7.8,4.62,7.8,9.03v121.4Z"/>
          <path class="cls-5" d="m1725.1,1540c0,4.4-3.49,7.5-7.8,6.92l-118.83-16.06c-4.31-.58-7.8-4.62-7.8-9.02v-121.4c0-4.4,3.49-7.5,7.8-6.92l118.83,16.06c4.31.58,7.8,4.62,7.8,9.03v121.4Z"/>
          <path class="cls-5" d="m1725.1,1737.77c0,4.4-3.49,7.5-7.8,6.92l-118.83-16.06c-4.31-.58-7.8-4.62-7.8-9.02v-121.4c0-4.4,3.49-7.5,7.8-6.92l118.83,16.06c4.31.58,7.8,4.62,7.8,9.03v121.4Z"/>
          <path class="cls-2" d="m1643.44,1141.39c-3.18-.43-6.17-2.36-8.07-5.23l-52.77-79.32,16.15-10.14,44.44,66.79,73.67-97.45,16.51,14.05-81.66,108.03c-1.86,2.45-4.87,3.68-8.1,3.29-.05,0-.1-.01-.15-.02Z"/>
          <path class="cls-2" d="m1643.44,1330.56c-3.18-.43-6.17-2.36-8.07-5.23l-52.77-79.32,16.15-10.14,44.44,66.79,73.67-97.45,16.51,14.05-81.66,108.03c-1.86,2.45-4.87,3.68-8.1,3.29-.05,0-.1-.01-.15-.02Z"/>
          <path class="cls-2" d="m1651.51,1522.62c-3.17-.43-6.17-2.37-8.07-5.23l-52.77-79.32,16.15-10.14,44.44,66.79,73.67-97.45,16.51,14.05-81.66,108.03c-1.85,2.45-4.87,3.68-8.1,3.29-.05,0-.1-.01-.15-.02Z"/>
        </g>
        <g>
          <g>
            <g>
              <path class="cls-3" d="m2451.76,2652.04c.38,11.19,9.76,19.95,20.95,19.57h0c11.18-.38,19.94-9.76,19.57-20.94l-1.44-42.39c-.38-11.18-9.75-19.95-20.94-19.57h0c-11.19.38-19.95,9.76-19.57,20.95l1.44,42.39Z"/>
              <path class="cls-9" d="m2472.61,2668.57c9.49-.32,16.96-8.31,16.63-17.8l-1.44-42.39c-.32-9.49-8.31-16.95-17.8-16.63-9.5.33-16.96,8.31-16.64,17.81l1.44,42.38c.32,9.5,8.31,16.96,17.81,16.63Z"/>
            </g>
            <g>
              <path class="cls-3" d="m2360,2702.21c.14,6.14,5.47,10.79,15.8,10.45l127.59-4.33c17.38-.59,24.77-12.37,17.65-26.79-.46-.92-.98-1.85-1.56-2.81-.06-.09-.1-.18-.16-.27l-19.24-30.86c-4.93-7.9-21.13,4.83-29.06,2.6-25.06-7.06-21.67-20.74-28-13.92-4.99,5.34-11.82,11.02-19.3,16.54-.83.64-1.66,1.24-2.49,1.82-2.38,1.72-4.78,3.42-7.23,5.08-.86.58-1.69,1.13-2.56,1.7-3.15,2.11-6.31,4.13-9.4,6.06-.86.58-1.73,1.12-2.59,1.64-16.18,10.01-29.87,17.23-29.87,17.23-5.28,4.04-8.34,8.65-9.27,12.85-.24,1.04-.36,2.05-.32,3.02Z"/>
              <path class="cls-9" d="m2363.03,2702.26c.02.7.14,1.37.37,2,1.31,3.61,5.79,5.58,12.29,5.36l127.58-4.33c7.88-.27,13.56-2.98,16.05-7.63,2.23-4.18,1.71-9.64-1.44-15.53-64.72,12.17-113.4,18.88-145.31,19.96-3.37.11-6.54.16-9.54.17Z"/>
              <path class="cls-13" d="m2363.03,2702.26c3.01,0,6.17-.05,9.54-.17,31.91-1.09,80.59-7.79,145.31-19.96-.33-.69-.75-1.37-1.17-2.06l-.45-.75-18.79-30.11c-.39-.66-1.04-1.24-2.96-1.18-2.61.08-6.13,1.33-9.59,2.54-3.81,1.38-7.82,2.79-11.31,2.91-1.24.04-2.38-.07-3.42-.37-14.77-4.15-20.41-10.65-23.45-14.17-.31-.36-.7-.8-1.01-1.13-.12.13-.3.29-.5.5-20.4,21.93-69.67,48.3-74.03,50.58-4.06,3.18-6.79,6.9-7.77,10.3-.33,1.05-.48,2.09-.41,3.06Z"/>
              <path class="cls-3" d="m2359.99,2702.21c1,.03,2.01.03,3.04.05,3.01,0,6.17-.05,9.54-.17,31.91-1.09,80.59-7.79,145.31-19.96,1.02-.19,2.08-.4,3.14-.59-.46-.93-.97-1.85-1.55-2.81-1.09.22-2.14.41-3.21.59-70.61,13.29-121.85,19.96-152.82,19.88-1.06,0-2.1.01-3.13-.01l-.32,3.02Z"/>
              <path class="cls-9" d="m2421.23,2654.62c7.75,10.72,24.96,10.5,27.33,10.42h.24c.82-.04,1.46-.76,1.43-1.61-.02-.82-.72-1.4-1.6-1.44-.22,0-17.65.72-24.92-9.19-.83.64-1.66,1.24-2.49,1.82Z"/>
              <path class="cls-9" d="m2411.44,2661.41c7.45,11.46,25.42,11.24,27.85,11.16h.24c.82-.04,1.46-.76,1.44-1.61-.03-.83-.71-1.41-1.6-1.44-.21,0-18.37.74-25.37-9.82-.86.58-1.69,1.13-2.56,1.7Z"/>
              <path class="cls-9" d="m2399.45,2669.11c7.72,10.69,24.93,10.5,27.3,10.42h.24c.82-.07,1.47-.79,1.44-1.61-.03-.85-.71-1.41-1.6-1.44-.21-.02-17.44.68-24.79-9.02-.86.58-1.73,1.12-2.59,1.64Z"/>
            </g>
          </g>
          <g>
            <g>
              <path class="cls-3" d="m2552.51,2556.96c7.23,8.55,20.02,9.62,28.57,2.39h0c8.54-7.22,9.62-20.01,2.39-28.56l-27.38-32.38c-7.23-8.55-20.01-9.62-28.56-2.39h0c-8.55,7.23-9.62,20.01-2.39,28.56l27.38,32.39Z"/>
              <path class="cls-9" d="m2579.12,2557.03c7.25-6.13,8.17-17.02,2.03-24.28l-27.38-32.39c-6.13-7.25-17.03-8.16-24.28-2.03-7.26,6.14-8.17,17.03-2.03,24.29l27.38,32.38c6.14,7.26,17.03,8.17,24.28,2.03Z"/>
            </g>
            <g>
              <path class="cls-3" d="m2511.54,2653.19c3.92,4.73,10.98,5.08,18.88-1.59l97.49-82.43c13.27-11.22,11.78-25.05-2.74-31.96-.93-.44-1.91-.85-2.96-1.24-.11-.03-.19-.08-.29-.11l-34.22-12.31c-8.76-3.15-13.6,16.87-21.2,20.04-24.05,9.98-29.86-2.86-30.61,6.41-.61,7.28-2.46,15.98-4.91,24.94-.25,1.02-.53,2.01-.83,2.97-.8,2.83-1.64,5.64-2.53,8.46-.31.99-.63,1.93-.96,2.92-1.16,3.61-2.39,7.15-3.62,10.58-.32.99-.66,1.95-1.02,2.89-6.5,17.88-12.78,32.02-12.78,32.02-1.64,6.45-1.2,11.96.68,15.83.46.96.99,1.83,1.62,2.57Z"/>
              <path class="cls-9" d="m2513.96,2651.35c.45.54.96.99,1.53,1.34,3.26,2.02,8,.8,12.97-3.4l97.49-82.42c6.02-5.09,8.8-10.74,7.87-15.93-.84-4.66-4.63-8.63-10.75-11.3-43.27,49.64-77.34,85.06-101.72,105.67-2.57,2.18-5.03,4.17-7.39,6.05Z"/>
              <path class="cls-13" d="m2513.96,2651.35c2.36-1.87,4.81-3.87,7.39-6.05,24.38-20.61,58.45-56.03,101.72-105.67-.68-.34-1.43-.62-2.19-.9l-.82-.3-33.41-12.01c-.71-.27-1.59-.33-3.05.91-2,1.69-3.98,4.84-5.95,7.94-2.14,3.44-4.41,7.03-7.08,9.28-.95.81-1.91,1.42-2.92,1.83-14.17,5.89-22.62,4.28-27.18,3.4-.47-.09-1.04-.2-1.49-.26-.02.18-.05.41-.08.71-2.43,29.85-24.78,81.08-26.8,85.56-1.21,5.01-1.06,9.62.28,12.9.39,1.03.92,1.93,1.57,2.66Z"/>
              <path class="cls-3" d="m2511.54,2653.19c.81-.6,1.59-1.22,2.42-1.85,2.36-1.87,4.81-3.87,7.39-6.05,24.38-20.61,58.45-56.03,101.72-105.67.69-.78,1.38-1.61,2.1-2.41-.93-.44-1.91-.85-2.96-1.24-.71.85-1.43,1.65-2.15,2.45-47.2,54.17-83.31,91.14-107.67,110.26-.83.67-1.64,1.31-2.47,1.93l1.62,2.57Z"/>
              <path class="cls-9" d="m2530.14,2577.9c12.72,3.62,26.1-7.22,27.91-8.75l.19-.16c.63-.53.69-1.49.13-2.14-.53-.63-1.43-.66-2.14-.14-.17.14-13.41,11.5-25.26,8.22-.25,1.02-.53,2.01-.83,2.97Z"/>
              <path class="cls-9" d="m2526.66,2589.29c12.95,4.38,26.92-6.92,28.78-8.49l.18-.16c.63-.53.69-1.5.14-2.14-.53-.63-1.43-.66-2.15-.14-.16.13-13.96,11.96-26,8-.31.99-.63,1.93-.96,2.92Z"/>
              <path class="cls-9" d="m2522.02,2602.76c12.68,3.61,26.08-7.2,27.89-8.72l.18-.16c.61-.55.67-1.52.14-2.14-.54-.65-1.43-.67-2.14-.14-.18.12-13.27,11.34-25.05,8.28-.32.99-.66,1.95-1.02,2.89Z"/>
            </g>
          </g>
          <path class="cls-13" d="m2574.01,2508.32l-10.12,8.91-22.62,19.97-11.92,10.49s-10.4-8.06-27.28-21.74c-.97-.79-1.94-1.61-2.95-2.44-.03,0-.03-.03-.03-.03-20.34-16.6-49.01-40.56-79.93-68.13t-.06-.06c-1.12-1-2.25-2.01-3.37-3.01-74.36-66.67-160.31-153.44-174.57-209.35-28.67-112.22,106.53-441.33,106.53-441.33l60.5,1.55,83.24,2.09-3.4,9.49-87.62,244.04-.09.3-3.16,8.85-53.41,148.82,56.67,71.78,3.31,4.16.09.12,97.93,124.01.03.03,2.95,3.74,69.29,87.71Z"/>
          <path class="cls-13" d="m2558.63,1946.26c-17.36,131.37-51.87,267.63-51.87,267.63l-5.01,202.94-1.19,48.95-1.43,57.74-.18,6.78-2.19,89.05h-59.29s-8.96-75.46-18.3-163.99c-5.66-54.05-11.46-113.01-15.44-162.66-2.62-32.77-4.41-61.47-4.86-82.06-.73-33.9.06-90.81,1.46-151.56,2.28-97.8,6.05-205.49,7.42-242.71.24-7.39.42-12.01.45-13.22.03-.21.03-.3.03-.3,0,0,100.63-5.66,110.33,7.14,2.25,2.98,4.56,6.48,6.81,10.37,8.3,14.01,16.63,33.38,22.95,53.63,8.06,25.72,12.89,52.87,10.31,72.27Z"/>
          <path class="cls-3" d="m2619.31,1680.42c.79,11.95-9.4,31.68-13.65,41.84-26.73,64.09-45.18,103.95-45.18,103.95,0,0-11.76,39.28-19.06,52.47-6.02,10.91-10.12,27.85-25.84,39.52-2.1,1.55-4.47,2.52-6.9,3.01-1.1.25-2.22.4-3.32.43-1.73.09-3.44-.03-5.08-.36-.94-.15-1.85-.4-2.71-.67-1.46-.45-2.83-1.07-3.99-1.76-.85-.52-1.61-1.06-2.25-1.67-1.52-1.46-2.37-3.13-2.22-4.83.73-8.06,20.43-37.34,16.27-48.4-2.4-6.38-12.89,16.29-18.46,12.34-5.38-3.86,19.22-39.98,26.36-43.72,8.39-4.41,17.91-9.91,21.53-15.17,11.98-17.36,20.12-35.51,28.12-77.68,5.53-29.12,19-53.66,17.78-58.07-24.62-88.07-48.37-146.29-51.59-161.86-1.37-6.57-7.75-26.18-3.25-38.09,2.4-6.29,5.66-21.31,20.07-14.02,4.29,2.19,37.55,66.52,54.51,142.5,4.17,18.73,12.74,37.18,16.81,56,0,0,3.59,9.09,2.04,14.26Z"/>
          <path class="cls-9" d="m2504.4,1918.63c-5.24,0-9.54-2.09-11.31-4.03-.46-.51-1-1.27-.94-2,.22-2.4,3.17-8.49,6.03-14.39,6.16-12.71,13.15-27.12,10.06-35.36-.73-1.95-2.26-3.11-4.1-3.11-2.94,0-5.38,2.96-8.76,7.05-1.5,1.82-4.35,5.27-6.11,6.47,1.34-7.49,19.34-34.82,25.44-38.03,8.4-4.41,18.56-10.23,22.62-16.13,11.91-17.27,20.41-35.7,28.59-78.83,3.16-16.66,8.91-31.63,13.1-42.56,3.84-10.02,5.38-14.2,4.62-16.91-15.36-54.97-30.37-98.28-40.31-126.94-5.84-16.86-10.07-29.04-11.24-34.71-.23-1.1-.6-2.57-1.03-4.29-2.02-8.04-5.78-23.01-2.34-32.1.25-.67.51-1.43.8-2.25,2.14-6.21,4.46-11.77,9.4-11.77,1.56,0,3.39.51,5.43,1.52,4.63,4.58,36.61,66.52,53.13,140.55,2.09,9.38,5.29,18.78,8.38,27.86,3.14,9.22,6.38,18.75,8.41,28.13l.05.24.09.24c1.24,3.14,2.88,9.25,1.98,12.25l-.16.53.04.55c.6,9.02-6.11,24.01-10.55,33.93-1.09,2.44-2.08,4.65-2.87,6.54-26.4,63.32-44.97,103.44-45.15,103.84l-.09.2-.06.21c-.12.39-11.76,39.11-18.8,51.88-1.56,2.83-2.97,5.98-4.46,9.32-4.39,9.82-9.36,20.95-20.53,29.23-3.22,2.38-6.87,2.89-9.37,2.89Z"/>
          <path class="cls-3" d="m2356.45,1624.42c-5.11,14.93-16.51,66.19-20.52,69.8-1.34,2.58-10.46,8.66-14.47,7.79-9.82-2.07-22.16-17.58-28.31-26.27-16.63-23.5-56.09-94.95-56.09-94.95,0,0-31.83-30.86-39.89-44.05-6.5-10.67-16.81-21.89-17.66-34.17-.21-2.98.12-6.2.91-9.3.27-1.03.58-2.04.94-3.04.82-2.25,1.89-4.38,3.16-6.26.48-.76,1.03-1.46,1.61-2.13,1.37-1.55,2.92-2.83,4.59-3.71l.15-.06c.79-.4,1.64-.67,2.52-.85,3.34-.76,7.08.09,11.06,3.31,6.29,5.08,18.37,31.2,29.95,33.57,6.69,1.37-6.93-19.61-.64-22.19,6.14-2.52,26.27,38.4,25.63,46.43-.73,9.46,4.07,30.58,4.07,30.58,0,0,14.05,30.8,45.48,60.02,1.58,1.46,3.13,2.98,4.62,4.5,16.84-65.64,24.6-110.85,29.04-123.32,2.28-6.32,7.02-26.36,17.09-34.17,5.35-4.16,16.96-14.62,25.44-.88,2.52,4.1-3.62,75.7-28.7,149.37Z"/>
          <path class="cls-9" d="m2322.08,1699.04c-6.43-1.37-16.32-10.74-26.45-25.06-16.33-23.1-55.52-93.95-55.92-94.66l-.22-.4-.32-.31c-.32-.31-31.65-30.73-39.41-43.46-1.67-2.75-3.62-5.56-5.49-8.29-5.48-7.94-11.14-16.15-11.74-24.52-.47-6.67,2.1-14.43,6.24-18.88,2.16-2.31,4.47-3.49,6.89-3.49,2.19,0,4.5.98,6.89,2.9,1.84,1.49,4.76,5.85,7.85,10.47,6.87,10.27,14.66,21.91,23.41,23.7.41.08.81.12,1.18.12,1.45,0,2.68-.61,3.48-1.71,1.79-2.48.56-6.22-1.15-11.4-.77-2.32-2.26-6.81-2.24-8.85,5.68,4.23,21.84,36,21.3,42.86-.76,9.8,3.93,30.61,4.13,31.49l.07.31.13.28c.59,1.28,14.67,31.69,46.18,60.96,1.56,1.45,3.07,2.94,4.55,4.42l3.77,3.79,1.33-5.18c9.24-36,15.73-65.8,20.46-87.55,3.79-17.43,6.54-30.03,8.49-35.48.38-1.06.83-2.51,1.37-4.21,2.47-7.92,7.06-22.64,14.73-28.6l1.02-.8c3.16-2.5,7.94-6.28,12.31-6.28,2.85,0,5.31,1.7,7.53,5.2,1.43,6.16-4.27,74.77-28.88,147-2,5.86-4.9,17.03-7.98,28.85-3.84,14.77-9.64,37.09-11.79,39.78l-.41.37-.15.37c-.96,1.62-7.89,6.25-10.94,6.25,0,0-.2-.01-.21-.01Z"/>
          <path class="cls-3" d="m2534.63,1552.85c6.83,12.93,13.54,24.38,13.54,24.38l39.38-14.48s-18.16-75.27-34.62-92.19c-5.89-6.06-28.47-8.97-28.47-8.97,0,0,0,.01,0,.02-17.96-2.7-42.51-3.6-62.98-3.87-21.28-.29-54.96,5.54-74.05,7.97-5.75.74-12.6.56-22.34,6.25-.49.26-.93.52-1.23.77-10.53,6.85-21.78,20.31-27.27,46.68-10.13,48.71-6.86,38.59-14.11,63.21-1.38,4.7,41.45,17.98,41.45,17.98l5.12-10.62c3.16,25.04,6.04,48.47,6.46,63.75,2.25,81.05-27.83,147.87-27.83,147.87,0,0,22.45,15.79,87.1,15.79,53.99,0,83.78-7.39,83.78-7.39,0,0-15.88-62.21-7.6-154.25,2.02-22.46,13.74-64.31,23.67-102.9Z"/>
          <path class="cls-10" d="m2434.78,1814.35c-52,0-76.38-10.43-83.25-14.04,5.38-13.03,29.02-74.65,27.02-146.67-.42-15.06-3.18-37.92-6.48-64.05l-1.29-10.21-8.44,17.52c-15.81-5.02-33.03-11.54-36.61-14.54,4.47-15.21,4.77-16.75,7.16-29.08,1.27-6.54,3.18-16.43,6.69-33.27,4.45-21.38,13.18-36.44,25.95-44.75l.15-.1.13-.11c.18-.14.44-.28.72-.43,8.84-5.36,15.96-5.38,21.51-5.95,17.82-1.84,49.35-7.93,71.23-7.93l2.18.02c27.02.36,48.07,1.65,62.57,3.84l3.49.52v-.03c8.42,1.38,19.98,4.2,23.25,7.58,13.99,14.39,29.81,74.78,33.19,88.16l-34.42,12.66c-2.27-3.93-7.23-12.65-12.2-22.07l-3.67-6.96-1.96,7.62c-1.67,6.49-3.39,13.06-5.1,19.62-8.71,33.34-16.95,64.83-18.65,83.76-7.21,80.13,3.97,138.51,6.97,152.21-8.71,1.78-36.62,6.66-80.12,6.66Z"/>
          <path class="cls-9" d="m2419.11,2455.3c-1.12-1-2.25-2.01-3.37-3.01-2.52-21.71-8.03-70.11-9.48-89.08l-5.84-74.67,3.4,4.29,5.44,70.14c1.55,20,7.6,72.75,9.85,92.33Z"/>
          <path class="cls-9" d="m2504.72,2420.61l-2.65,105.35c-.97-.79-1.94-1.61-2.95-2.44l-.18,6.78h-.03l.18-6.81,1.46-57.71,1.22-48.92,2.95,3.74Z"/>
          <path class="cls-9" d="m2402.91,1962.31l-2.49,96.47-.09.3-3.16,8.85,2.71-105.68c0-.85.82-1.52,1.55-1.49.85.03,1.49.73,1.49,1.55Z"/>
          <polygon class="cls-3" points="2193.4 1477.21 2216.2 1514.54 2190.72 1478.12 2193.4 1477.21"/>
          <path class="cls-3" d="m2207.87,1517.4l-23.35-33.44c.48-.76,1.03-1.46,1.61-2.13l21.74,35.57Z"/>
          <path class="cls-3" d="m2202.76,1525.24l-22.35-31.98c.27-1.03.58-2.04.94-3.04l21.4,35.02Z"/>
          <path class="cls-3" d="m2516.58,1877.92l-22.99,40.92c-.85-.52-1.61-1.06-2.25-1.67l25.23-39.25Z"/>
          <path class="cls-3" d="m2522.14,1882.42l-21.86,38.85c-.94-.15-1.85-.4-2.71-.67l24.56-38.18Z"/>
          <path class="cls-3" d="m2529.77,1883.69l-21.1,37.52c-1.1.25-2.22.4-3.32.43l24.41-37.94Z"/>
          <g>
            <g>
              <path class="cls-3" d="m2445.9,1478.24c-11.7,0-31.86-7.23-32.81-14.06-.47-3.39,16.17-4.28,16.19-9.89,0-1.22,0-2.5,0-3.83v-32.34c-22.3-1.16-26.54-14.12-29.97-40.36-.53-.37-2.13-.77-3.11-1.01-2.93-.72-7.35-1.81-7.58-6.27-.1-1.94,1.23-6.4,4.51-16.88,1.58-5.06,3.75-12,3.85-13.35,0-36.53,20.51-44.03,51.3-44.03,28.43,0,44.08,22.27,44.08,62.71,0,16.38-5.77,30.77-16.72,41.73,0,0-5.15,42.21-1.36,48.33,3.96,6.39,19.08,9.37,20.52,9.83,3.76,1.18-4.43,5.34-6.33,6.39-12.13,6.67-26.17,13.05-42.56,13.05Z"/>
              <path class="cls-9" d="m2472.6,1451.65c-7.81-10.48,0-52.28,0-52.28,10.11-9.68,16.72-23.45,16.72-40.45,0-34.84-12.08-59.66-41.04-59.66s-48.26,6.21-48.26,41.04c0,3.03-8.51,26.97-8.36,30.02.22,4.35,10.09,2.57,10.64,6.84,3.53,27.11,7.51,37.87,30.02,37.99,0,0,.24,25.95,0,38.02-.07,3.47-5.16,8.47-15.55,10.49-5.1,1,16.34,13.68,30.7,12.78,24.43-1.53,36.61-11.84,41.81-14.88,4.18-2.45-13.66-5.86-16.67-9.91Z"/>
              <path class="cls-15" d="m2450.43,1393.89c8.92,14.71,22.18,46.25,48.06,49.26,21.47,2.5,62.66-33.48,50.75-63.82-6.08-15.48-3.33-29.63,2.65-48.25,13.31-41.44-9.25-37.61-26.21-77.16-11.75-27.4-55.66-3.34-66.89-9.71-11.54-6.54-51-7.81-70.18,23-7.44,11.95-1.28,44.59,24.32,53.71,6.68,2.38,25.98,10.14,28.7,19.26,2.72,9.12,1.74,42.08,8.8,53.71Z"/>
            </g>
            <path class="cls-9" d="m2440.91,1368.4c-1.81,8.95-4.19,16.02.7,17.01,4.89.99,15.22-4.48,17.03-13.43,1.8-8.95-.7-17-5.59-17.99-4.89-.98-10.33,5.47-12.13,14.42Z"/>
            <path class="cls-3" d="m2430.58,1418.33c.98,0,11.5-.24,16.29-10.49.36-.76.03-1.66-.73-2.02-.75-.35-1.67-.03-2.02.73-4.08,8.73-13.18,8.73-13.55,8.74-.85-.11-1.52.66-1.53,1.5-.01.84.66,1.52,1.5,1.53h.06Z"/>
          </g>
        </g>
        <g>
          <g>
            <g>
              <path class="cls-3" d="m2953.44,1458.74c-.05,11.19-9.15,20.23-20.35,20.19h0c-11.19-.05-20.23-9.16-20.19-20.35v-78.61c.04-11.19,9.15-20.23,20.34-20.19h0c11.2.04,20.23,9.15,20.19,20.35v78.61Z"/>
              <path class="cls-9" d="m2933.1,1475.89c-9.5-.04-17.2-7.8-17.16-17.3v-78.61c.03-9.5,7.79-17.2,17.29-17.16,9.5.04,17.2,7.79,17.17,17.29v78.61c-.03,9.5-7.79,17.2-17.29,17.16Z"/>
            </g>
            <g>
              <path class="cls-3" d="m3046.67,1506.13c.04,6.14-5.15,10.96-15.48,10.91l-127.66-.5c-17.39-.07-25.13-11.62-18.45-26.25.43-.94.92-1.88,1.47-2.85.06-.09.09-.18.16-.27l18.3-31.43c4.69-8.04,21.27,4.19,29.12,1.73,24.84-7.81,21.03-21.38,27.57-14.76,5.15,5.19,12.15,10.66,19.79,15.95.85.61,1.7,1.19,2.54,1.74,2.43,1.65,4.89,3.27,7.38,4.86.88.55,1.73,1.07,2.61,1.62,3.21,2.02,6.43,3.95,9.59,5.78.88.55,1.76,1.07,2.63,1.56,16.47,9.52,30.37,16.32,30.37,16.32,5.4,3.88,8.6,8.4,9.65,12.57.27,1.03.42,2.04.41,3.01Z"/>
              <path class="cls-9" d="m3043.64,1506.27c0,.7-.1,1.37-.31,2.01-1.2,3.64-5.62,5.75-12.12,5.73l-127.66-.5c-7.88-.03-13.64-2.58-16.27-7.15-2.35-4.11-2-9.58.97-15.56,65.05,10.22,113.92,15.46,145.84,15.58,3.37.01,6.54-.04,9.54-.12Z"/>
              <path class="cls-13" d="m3043.64,1506.27c-3.01.08-6.17.13-9.54.12-31.92-.12-80.79-5.36-145.84-15.58.3-.7.7-1.4,1.11-2.1l.43-.76,17.87-30.66c.37-.67,1.01-1.28,2.92-1.27,2.62,0,6.17,1.15,9.66,2.26,3.85,1.26,7.89,2.56,11.38,2.57,1.25,0,2.38-.14,3.41-.48,14.64-4.59,20.08-11.26,23.02-14.86.3-.36.67-.82.97-1.15.12.12.3.27.52.49,21.04,21.3,71.08,46.19,75.51,48.33,4.15,3.05,7,6.69,8.08,10.06.36,1.04.54,2.07.51,3.04Z"/>
              <path class="cls-3" d="m3046.68,1506.13c-1,.06-2,.08-3.04.14-3.01.08-6.17.13-9.54.12-31.92-.12-80.79-5.36-145.84-15.58-1.03-.16-2.1-.35-3.16-.5.43-.94.92-1.88,1.47-2.85,1.09.19,2.16.34,3.22.5,70.98,11.16,122.4,16.29,153.35,15.28,1.07-.02,2.1-.05,3.13-.11l.41,3.01Z"/>
              <path class="cls-9" d="m2984.04,1460.4c-7.42,10.95-24.63,11.25-27.01,11.24h-.24c-.82,0-1.49-.71-1.48-1.56,0-.82.68-1.42,1.56-1.48.21,0,17.67.19,24.63-9.93.85.61,1.7,1.19,2.54,1.74Z"/>
              <path class="cls-9" d="m2994.02,1466.89c-7.1,11.68-25.07,12-27.5,11.99h-.24c-.82,0-1.49-.71-1.48-1.55,0-.82.67-1.42,1.56-1.48.21,0,18.39.19,25.06-10.58.88.55,1.73,1.07,2.61,1.62Z"/>
              <path class="cls-9" d="m3006.24,1474.23c-7.4,10.92-24.6,11.25-26.97,11.23h-.24c-.82-.04-1.49-.74-1.49-1.56,0-.85.67-1.43,1.56-1.49.21-.03,17.45.16,24.51-9.75.88.55,1.76,1.07,2.63,1.56Z"/>
            </g>
          </g>
          <g>
            <g>
              <path class="cls-3" d="m2804.7,1419.99c-5.52,9.74-17.88,13.17-27.63,7.65h0c-9.74-5.51-13.16-17.88-7.65-27.62l38.47-68.55c5.52-9.74,17.88-13.16,27.62-7.65h0c9.74,5.51,13.17,17.88,7.65,27.62l-38.47,68.55Z"/>
              <path class="cls-9" d="m2778.57,1424.99c-8.26-4.68-11.18-15.22-6.5-23.48l38.47-68.56c4.68-8.27,15.22-11.18,23.48-6.5,8.27,4.68,11.19,15.21,6.51,23.49l-38.47,68.55c-4.68,8.27-15.21,11.18-23.48,6.5Z"/>
            </g>
            <g>
              <path class="cls-3" d="m2862.81,1506.95c-2.97,5.38-9.85,7.03-18.84,1.94l-111.09-62.91c-15.13-8.57-16.22-22.43-3.24-31.92.84-.61,1.72-1.18,2.68-1.76.1-.05.17-.11.27-.16l31.34-18.45c8.03-4.72,16.5,14.06,24.55,15.75,25.48,5.34,28.8-8.35,31.27.62,1.95,7.04,5.38,15.24,9.45,23.59.45.95.9,1.87,1.37,2.76,1.31,2.63,2.66,5.25,4.05,7.85.49.91.98,1.78,1.48,2.69,1.81,3.33,3.67,6.59,5.53,9.73.49.91,1.01,1.8,1.53,2.65,9.71,16.37,18.5,29.1,18.5,29.1,2.81,6.02,3.4,11.53,2.27,15.68-.27,1.03-.63,1.98-1.12,2.83Z"/>
              <path class="cls-9" d="m2860.09,1505.59c-.34.61-.75,1.14-1.25,1.6-2.83,2.59-7.72,2.27-13.37-.94l-111.09-62.91c-6.86-3.88-10.63-8.92-10.69-14.19-.04-4.74,2.95-9.34,8.46-13.09,51.73,40.75,91.78,69.23,119.56,84.96,2.93,1.66,5.72,3.17,8.38,4.58Z"/>
              <path class="cls-13" d="m2860.09,1505.59c-2.66-1.4-5.45-2.91-8.38-4.58-27.78-15.73-67.83-44.21-119.56-84.96.61-.46,1.3-.88,1.99-1.29l.74-.45,30.59-18c.65-.4,1.5-.62,3.17.33,2.28,1.29,4.82,4.02,7.32,6.7,2.74,2.99,5.63,6.09,8.67,7.81,1.09.62,2.14,1.04,3.21,1.26,15.02,3.16,23.02,0,27.35-1.7.44-.17.98-.39,1.41-.53.05.17.13.39.21.68,7.93,28.88,39.39,75.07,42.2,79.1,2.12,4.7,2.83,9.25,2.12,12.73-.19,1.08-.54,2.07-1.05,2.91Z"/>
              <path class="cls-3" d="m2862.81,1506.96c-.9-.45-1.79-.91-2.72-1.37-2.66-1.4-5.45-2.91-8.38-4.58-27.78-15.73-67.83-44.21-119.56-84.96-.82-.64-1.66-1.33-2.51-1.99.83-.61,1.72-1.19,2.68-1.77.86.7,1.71,1.35,2.56,2.01,56.44,44.46,98.77,74.1,126.25,88.37.94.51,1.86.99,2.79,1.44l-1.12,2.83Z"/>
              <path class="cls-9" d="m2830.56,1436.42c-11.83,5.91-26.99-2.25-29.05-3.41l-.21-.12c-.71-.4-.95-1.34-.53-2.08.4-.72,1.29-.92,2.08-.53.19.11,15.31,8.81,26.35,3.39.45.95.9,1.87,1.37,2.76Z"/>
              <path class="cls-9" d="m2836.1,1446.96c-11.9,6.71-27.74-1.8-29.86-3l-.21-.12c-.71-.4-.95-1.34-.53-2.08.41-.71,1.29-.91,2.09-.53.18.1,15.94,9.17,27.03,3.04.49.91.98,1.78,1.48,2.69Z"/>
              <path class="cls-9" d="m2843.16,1459.34c-11.79,5.9-26.96-2.23-29.02-3.4l-.21-.12c-.7-.43-.94-1.37-.54-2.08.42-.74,1.28-.92,2.09-.53.2.08,15.14,8.68,26.15,3.49.49.91,1.01,1.8,1.53,2.65Z"/>
            </g>
          </g>
          <path class="cls-13" d="m2925.66,1011.76c-27.7-3.58-43.21-4.29-56.94-4.99-25.81-1.31-89.06-1.76-100.98-4.38-16.65-3.66-66.54-43.32-66.54-43.32l-99.87,12.28s-9.32,35.8-10.14,68.39c-.82,32.59,14.29,93.96,45.26,102.65,40.78,11.45,108.75,7.36,157.65-2.42,27.87-5.58,50.7-12.21,65.19-16.88h0l31.53-5.82,12.95,302.07h58.81s16.94-237.54,21.87-341.41c2.58-54.28-36.63-63.31-58.79-66.18Z"/>
          <path class="cls-9" d="m2894.36,1035.78c-32.07-3.89-50.38-3.87-64.1-4.57-25.81-1.31-87.41-4.85-99.32-7.47-16.65-3.66-59.78-31.16-59.78-31.16l-95.83,21.08s-12.22,19.54-13.03,52.13c-.82,32.6,14.61,88.6,45.26,102.65,39.91,18.3,100.7,6.96,149.59-2.82,27.88-5.58,50.58-11.89,66.78-16.47,16.09-4.54,37.99-5.83,37.99-5.83l-71,215.02,111.4-90.09s11.62-22.29,25.86-59.43c10.41-27.15,24.14-61.28,26.22-105.14,2.58-54.28-28.86-64.12-60.04-67.9Z"/>
          <path class="cls-13" d="m2893.71,1037.81c-32.06-3.89-52-3.99-65.73-4.69-25.81-1.31-80.25-2.06-92.18-4.68-16.65-3.66-66.54-43.32-66.54-43.32l-96.98,28.54s-12.22,19.54-13.03,52.13c-.82,32.6,14.61,88.6,45.26,102.65,39.91,18.3,100.7,6.96,149.59-2.82,27.88-5.58,50.58-11.89,66.78-16.47,16.09-4.54,37.99-5.83,37.99-5.83l-71,215.02,52.77,18.58s106.92-169.07,111.86-272.94c2.58-54.28-27.6-62.39-58.79-66.17Z"/>
          <polygon class="cls-1" points="2610.05 923.6 2598.91 930.67 2588.45 945.34 2584.52 949.68 2609.78 953.35 2589.54 952.8 2579.9 950.22 2584.52 941.8 2594.97 926.73 2610.05 923.6"/>
          <path class="cls-14" d="m2923.95,904.83c1,5.12-4.47,10.5-12.21,12.01-7.74,1.51-14.82-1.43-15.82-6.55-1-5.13,4.47-10.5,12.21-12.02,7.74-1.51,14.83,1.42,15.83,6.55Z"/>
          <path class="cls-7" d="m2871.91,978.16c-1-6.6-3.65-22.32-6.27-25.81-1.52-2.01-9.97-6.72-40.4-23.02-17.48-9.36-37.33-19.97-50.13-27.51-20.43-12.01-19.88-26.76-18.7-59.1.3-8.39.64-17.91.64-28.7v-4.98c.03-30.31.06-61.63-8.03-90.88-2.77-10-7.03-17.54-13.04-23.02-3.16-2.83-6.99-6.11-11.22-9.24-.85-.64-1.73-1.28-2.61-1.92-4.41-3.1-9.15-5.9-13.77-7.78-9.83-4.03-21.31-4.1-32.4-5.66-8.49-1.2-16.55-4.21-24.6-4.92l-5.47-.49c-1.16-.12-2.37-.15-3.56-.15-5.56,0-11.34.97-16.94,1.95-2.31.4-4.56.79-6.69,1.06-20.34,2.8-35.82,5.9-50.2,10.1-9.33,2.7-18.91,6.14-28.52,10.24-14.5,6.2-25.27,16.3-33.87,31.77-10.52,18.88-18.45,39.28-26.15,59.01l-1.43,3.71c-3.47,8.85-7.27,17.75-10.98,26.36-4.65,10.85-9.45,22.04-13.59,33.32-4.99,13.5-8.24,25.54-9.97,36.85-2.8,18-3.31,49.65,24.62,58.95,42.84,14.29,75.4,16.97,91.06,18.27,2.8.21,5.17.43,6.84.64,3.19,29,2.71,56.12,2.71,56.4l-.09,3.71,76.98-13.71.48-.1c1.37-.39,2.77-.73,4.14-1.09l2.46-.6c4.87-1.25,9.7-2.49,14.56-3.68l5.38-1.31c4.41-1.09,8.82-2.19,13.22-3.22,4.11-.94,8.21-1.85,12.31-2.77,5.02-1.12,10.06-2.22,15.08-3.43,2.28-.55,4.65-.91,7.24-1.07l1.18-.06c2.01-.09,4.29-.21,6.42-1.18,3.25-1.49,4.5-4.96,4.56-7.66.15-4.53-1.49-8.88-2.95-12.74l-.61-1.58c-1.49-4.07-3.2-8.12-4.81-12.04l-2.58-6.23c-3.53-8.55-7.17-17.42-9.49-26.45-2.88-11.25-3.16-18.48-3.47-26.88-.15-4.1-.3-8.36-.79-13.44-.28-2.77.06-5.23.24-6.41.55-.58,1.43-1.58,2.55-2.92,1.97,9.88,3.83,17.54,5.59,22.83,1.43,4.32,2.5,7.75,3.34,10.55,4.02,13.01,4.32,13.44,15.84,22.8l3.8,3.07c18.12,14.84,67.25,32.38,69.38,33.11l63.42,22.04-.76-4.99Zm-332.73-78.16c-5.93-2.37-12.19-4.11-18.27-5.81-11.04-3.04-21.46-5.96-24.6-11.58-5.66-10.24,4.56-25.66,16.39-43.51,1.83-2.74,3.68-5.53,5.5-8.36,3.59-5.53,6.84-10.64,9.82-15.48,1.64,11.86,3.16,19.73,4.65,23.9,7.42,21.04,9.73,28.21,11.43,33.41,1.15,3.53,2.07,6.32,4.01,11.85.09.21.27.7.55,1.37,1.18,3.07,4.07,10.46,7.18,20.31-5.66-1.89-11.22-3.92-16.66-6.11Z"/>
          <path class="cls-11" d="m2863.02,954.1c-2.45-3.26-61.93-33.42-89.64-49.71-27.71-16.3-19.56-38.3-19.56-90.44,0-31.32.5-64.59-7.91-95.04-2.23-8.08-5.84-15.82-12.16-21.57-7.38-6.7-17.36-14.56-26.72-18.39-18.61-7.61-41.64-9.04-61.6-10.85-8.34-.76-18.27,1.72-26.49,2.85-16.81,2.31-33.46,5.25-49.77,9.98-9.59,2.78-18.99,6.21-28.17,10.14-14.73,6.3-24.68,16.55-32.41,30.44-11.07,19.88-19.16,41.21-27.4,62.36-7.8,20.03-17.13,39.45-24.55,59.63-4.32,11.76-7.9,23.84-9.82,36.24-3.3,21.32-1.16,47.7,22.6,55.62,53.78,17.93,91.08,17.43,99.23,19.06.14.03.31.05.46.08,3.53,30.45,2.98,59.12,2.98,59.12l3.16-.56,70.18-12.48c.06-.02.13-.04.19-.06,2.21-.61,4.44-1.13,6.66-1.7,4.86-1.25,9.73-2.48,14.6-3.68,6.21-1.52,12.4-3.08,18.62-4.54,9.11-2.13,18.27-4.01,27.37-6.2,2.56-.62,5.13-.98,7.76-1.15,2.13-.14,4.56-.05,6.54-.97,1.89-.88,2.74-3.08,2.8-5,.15-4.48-1.87-9.06-3.39-13.17-1.98-5.36-4.24-10.6-6.41-15.88-3.93-9.57-7.99-19.09-10.56-29.14-4.38-17.12-2.89-25.41-4.34-40.76-.42-4.46.45-8.13.45-8.13,0,0,3.03-3.21,7.11-8.52,2.14,11.53,4.45,21.97,6.74,28.88,8.42,25.45,4.1,20.37,22.01,35.04,17.93,14.66,68.46,32.59,68.46,32.59l53.98,18.74,4.69,1.63s-3.26-21.18-5.7-24.44Zm-369.54-70.1c-7.51-13.57,7.55-32.68,21.99-54.99,5.14-7.94,9.54-16.02,14.34-22.19,1.81,14.6,3.66,25.93,5.54,31.26,12.26,34.83,10.54,31.34,15.46,45.25.49,1.37,5.03,12.35,9.47,27.37-7.07-2.21-14.6-4.83-22.4-7.96-17.41-6.96-38.79-8.63-44.4-18.76Z"/>
          <path class="cls-4" d="m2734.31,824.59c-5.78,15.17-23.84,44.66-24.63,45.91l-2.58-1.58c.18-.3,18.7-30.49,24.35-45.39,4.5-11.83-1.67-30.34-8.24-49.89-1.58-4.74-3.19-9.58-4.71-14.44-8.67-27.73-.12-62.48,3.65-75.22.88.64,1.76,1.28,2.61,1.92-3.74,13.28-11.43,46.51-3.34,72.39,1.52,4.87,3.1,9.67,4.68,14.38,7.02,20.98,13.07,39.1,8.21,51.93Z"/>
          <g>
            <path class="cls-3" d="m2746.26,982.2c-.64,1.03-1.61,1.73-2.74,1.95-.12.03-.21.03-.3.06-.58.09-1.07.21-1.52.27-.67.12-1.22.24-1.71.31-.48.09-.91.12-1.28.15-.42.06-.79.09-1.15.09-.52,0-.97-.06-1.37-.15-.42-.06-.79-.18-1.15-.31-.09-.03-.21-.06-.3-.09-3.92-1.31-12.04-7.78-14.59-17.78-.58-2.22-1.22-3.13-5.56-3.13-1.67,0-3.71.15-6.05.33-1.06.06-2.22.15-3.44.21-.34.03-.67.03-1,.03-4.74,0-7.51-2.19-8.88-4.32l-86.89-7.18,2.34-31.19,2.07.82c.24.06,23.41,5.56,31.74,6.87,6.33,1,15.57,2.98,25.33,5.08,13.35,2.86,28.46,6.11,33.51,6.11,7.36,0,13.04,1.46,17.6,2.65,1.28.31,2.46.61,3.62.88,14.2,3.16,18.7,12.37,20.13,17.57,1.03,3.83,4.23,16.57,1.61,20.77Z"/>
            <path class="cls-9" d="m2612.02,925.23s23.43,5.58,31.98,6.93c15.48,2.44,50.32,11.21,59.29,11.21s15.19,2.26,20.57,3.46c12.06,2.69,16.37,10,17.85,15.42,1.6,5.89,4.05,18.36,1.24,18.91-5.62,1.09-5.6,1-7.41.4-2.56-.86-10.08-6.32-12.45-15.6-1.73-6.79-7.23-5.55-18.18-4.87-6.52.41-7.74-4.15-7.74-4.15l-87.12-7.19,1.97-24.52Z"/>
            <path class="cls-7" d="m2741.7,984.48c.03-.42.06-.94.03-1.58-.15-3.34-.45-6.6-.94-9.91-.52-5.81-3.16-12.83-6.93-17.33,6.99,7.51,8.45,18.7,9.37,28.55-.58.09-1.07.21-1.52.27Z"/>
            <path class="cls-7" d="m2739.99,984.79c-.48.09-.91.12-1.28.15-.15-2.74-.45-5.44-.82-8.18-.51-5.81-3.16-12.83-6.96-17.33,6.26,6.69,8.12,16.36,9.06,25.36Z"/>
            <path class="cls-7" d="m2736.19,984.88c-.42-.06-.79-.18-1.15-.31-.12-1.15-.27-2.34-.43-3.52-.52-5.81-3.16-12.83-6.96-17.33,5.29,5.66,7.45,13.44,8.54,21.16Z"/>
          </g>
          <path class="cls-7" d="m2578.48,956.97c-15.31,0-33.26-1.75-33.45-1.76l.3-3.02c.21.02,21.4,2.08,37.18,1.7,9.59-.23,21.93-1.49,25.84-1.91l2.06-28.73c-4.83-.78-21.21-3.45-30.84-5.59-8.4-1.87-10.51-2.44-27.07-9.42l1.18-2.8c16.37,6.9,18.22,7.4,26.55,9.26,11.24,2.5,31.83,5.75,32.04,5.78.78.12,1.34.83,1.28,1.61l-2.25,31.38c-.05.73-.62,1.32-1.34,1.4-.16.02-15.74,1.8-27.37,2.07-1.33.03-2.71.05-4.1.05Z"/>
          <g>
            <g>
              <path class="cls-7" d="m2641.04,1021c.02,4.82,3.99,8.76,8.82,8.73l254.46-1.25c4.83-.02,8.75-3.99,8.73-8.82v-2.32c-.04-4.83-4-8.76-8.83-8.73l-254.46,1.25c-4.83.02-8.75,3.99-8.73,8.82v2.32Z"/>
              <path class="cls-10" d="m2649.81,1026.69c-3.14,0-5.72-2.56-5.74-5.71v-2.32c-.03-3.16,2.53-5.75,5.69-5.76l254.46-1.25c3.17,0,5.75,2.56,5.76,5.71v2.32c.03,3.16-2.54,5.75-5.69,5.76l-254.49,1.25Z"/>
              <g>
                <path class="cls-7" d="m2979.38,1028.8c7.24,0,15.82-5.29,19.07-11.76l83.6-166.23c3.25-6.47,0-11.69-7.25-11.61l-253.37,2.98c-7.24.09-15.68,5.51-18.76,12.06l-76.54,162.64c-3.08,6.55.32,11.91,7.56,11.91h245.69Z"/>
                <path class="cls-10" d="m2733.69,1025.76c-2.42,0-4.23-.74-5.08-2.09-.86-1.35-.76-3.3.27-5.49l76.54-162.64c2.6-5.52,9.95-10.25,16.05-10.32l253.37-2.98c2.44,0,4.19.71,4.95,1.93.77,1.25.6,3.16-.46,5.27l-83.6,166.23c-2.75,5.47-10.24,10.09-16.36,10.09h-245.69Z"/>
              </g>
            </g>
            <path class="cls-5" d="m2888.34,937.76c-3.63,8.94.78,16.18,9.87,16.18s19.4-7.25,23.03-16.18c3.63-8.93-.78-16.18-9.87-16.18s-19.4,7.24-23.03,16.18Z"/>
          </g>
          <g>
            <path class="cls-15" d="m2595.28,480.65c-9.28,3.83-98.56,30.22-103.08,103.62-2.83,45.87,66.24,47.97,111.29,47.74,50.06-.25,66.06-16.65,76.66-41.26,3.7-8.6,8.83-30.08,7.77-39.38-2.5-21.97,3.54-27.43-16.87-55.02-14.86-20.07-46.06-27.96-75.77-15.7Z"/>
            <path class="cls-3" d="m2698.72,673.35s-37.12,35.63-67.83,36.85c-29.31,1.17-63.41-30.89-63.41-30.89,0,0,36.83-10.68,37.06-15.74,1.2-26.67,14.66-91.95,14.66-91.95l17.74-.7s13.67,65.58,17.33,91.84c.73,5.23,44.45,10.58,44.45,10.58Z"/>
            <path class="cls-9" d="m2630.75,706.79c-21.44.85-46.26-17.62-56.33-25.97,33.22-10.14,33.44-14.96,33.53-17.08,1.04-23.09,11.57-76.37,14.07-88.79l12.17-.48c2.66,12.86,13.54,66.03,16.71,88.78.31,2.21,1,7.22,39.97,12.54-11.27,9.61-37.79,30.12-60.11,31.01Z"/>
            <path class="cls-3" d="m2636.67,628.73c-8.68,3.42-35.59,9.04-55.66-28.82-1.73-3.31-8.43-.45-14.64-10.6-6.83-11.18,8.38-7.65,7.71-10.73-1.29-5.96-1.97-11.82-1.99-17.35,5.82-3.31,11.69-5.28,19.07-7.97,9.34-3.38,14.87-9.51,21.02-17.24,3.81-4.83,8.71-5.23,15.46-2.29.73,9.85,7.63,22.67,23.31,19.86.97,3.86,2.47,17.44,3.07,24.08,2.88,32.01-7.52,47.23-17.35,51.07Z"/>
            <path class="cls-9" d="m2624.61,627.75c-11.16.44-27.26-4.31-40.58-29.44-1.31-2.49-3.74-3.21-5.71-3.78-2.71-.8-5.8-1.7-9.04-7-1.38-2.25-1.27-3.08-1.27-3.08.35-.27,2.41-.64,3.39-.82,2.17-.4,4.22-.77,5.41-2.56.63-.94.84-2.08.6-3.2-1.1-5.04-1.72-9.94-1.88-14.62,4.38-2.28,8.9-3.92,14.45-5.92l2.34-.84c10.31-3.74,16.29-10.51,22.52-18.32,1.5-1.9,3.05-2.78,5.02-2.86,1.31-.05,2.83.23,4.6.86,1.61,10.99,9.26,21.79,23.24,21.23.17,0,.33-.01.49-.02.83,5.19,1.88,14.6,2.43,20.62,2.66,29.69-6.52,44.19-15.2,47.58-1.88.74-5.76,2-10.82,2.2Z"/>
          </g>
          <path class="cls-7" d="m2528.33,813.37c-.29,0-.59-.08-.85-.26-.7-.47-.89-1.41-.42-2.11l20.9-31.2c.47-.69,1.42-.88,2.11-.42.7.47.88,1.41.42,2.11l-20.91,31.2c-.29.44-.77.67-1.26.67Z"/>
        </g>
        <g>
          <path class="cls-2" d="m2980.8,2451.94c0,21.63,6.98,42.52,20.73,62.11,13.56,19.3,33.2,36.46,58.37,50.99,48.09,27.77,111.68,43.06,179.04,43.06s130.95-15.29,179.05-43.06c25.18-14.53,44.81-31.69,58.37-50.99,13.76-19.58,20.73-40.48,20.73-62.11v-48.65s-35.18-70.99-60.35-85.53c-48.1-27.77-124.95-62.98-192.31-62.98s-149.57,29.08-197.67,56.85c-25.17,14.53-65.96,91.66-65.96,91.66v48.65Zm87.53-98.51c94.23-54.4,247-54.41,341.23,0,94.23,54.41,93.05,98.4-1.18,152.8-94.23,54.41-251.31,55.93-345.54,1.53-94.23-54.4-88.75-99.93,5.48-154.33Z"/>
          <path class="cls-3" d="m2980.8,2403.29c0,21.63,6.98,42.52,20.73,62.11,13.56,19.3,33.2,36.46,58.37,50.99,48.09,27.77,111.68,43.06,179.04,43.06s130.95-15.29,179.05-43.06c25.18-14.53,44.81-31.69,58.37-50.99,13.76-19.59,20.73-40.48,20.73-62.11s-6.98-42.53-20.73-62.11c-13.56-19.3-33.2-36.46-58.37-50.99-48.09-27.77-111.68-43.06-179.04-43.06s-130.95,15.29-179.05,43.06c-25.17,14.54-44.81,31.69-58.37,50.99-13.76,19.58-20.73,40.48-20.73,62.11Zm87.53-98.51c94.23-54.4,247-54.41,341.23,0,94.23,54.41,94.22,142.61,0,197.01-94.23,54.41-247,54.41-341.23,0-94.23-54.4-94.23-142.61,0-197.01Z"/>
          <path class="cls-5" d="m3238.93,2556.79c-66.9,0-130.01-15.17-177.71-42.7-24.84-14.34-44.19-31.24-57.52-50.22-13.43-19.13-20.25-39.51-20.25-60.58s6.81-41.45,20.25-60.58c13.33-18.98,32.68-35.88,57.52-50.22,47.69-27.54,110.81-42.7,177.72-42.7s130.02,15.16,177.71,42.7c24.83,14.34,44.19,31.23,57.52,50.21,13.43,19.13,20.25,39.51,20.25,60.58s-6.81,41.45-20.25,60.58c-13.34,18.99-32.69,35.89-57.52,50.22-47.7,27.54-110.81,42.71-177.72,42.71Zm.02-295.47c-64.91,0-125.98,14.62-171.95,41.16-46.43,26.81-72,62.61-72,100.81s25.57,74,72,100.8c45.97,26.54,107.03,41.16,171.94,41.16s125.98-14.62,171.95-41.16c46.43-26.8,72-62.61,72-100.8,0-38.2-25.57-74-72-100.81-45.97-26.54-107.03-41.16-171.94-41.16Z"/>
          <g>
            <path class="cls-3" d="m2929.25,2586.34l117.59-68.38c4.83-4.19,11.69-3.42,18.06,2.99,9.38,9.43,14.17,27.5,10.69,40.34-1.68,6.2-4.99,10.02-9.46,11.55l-115.49,67.81s-13.6-4.07-21.02-21.61c-10.23-24.19-.37-32.71-.37-32.71Z"/>
            <path class="cls-5" d="m2950.38,2637.72c-3.14-1.29-12.59-6.18-18.31-19.71-8.55-20.21-2.21-28.41-1.18-29.55l117.5-68.33.19-.16c1.5-1.3,3.2-1.95,5.07-1.95,3,0,6.24,1.66,9.37,4.81,8.77,8.82,13.26,25.76,10.01,37.77-1.41,5.18-4.02,8.45-7.75,9.73l-.25.09-114.64,67.31Z"/>
            <path class="cls-2" d="m2922.62,2596.83c-3.46,12.76,1.3,30.69,10.62,40.06,9.31,9.37,19.67,6.62,23.13-6.13,3.45-12.75-1.3-30.68-10.61-40.05-9.32-9.37-19.67-6.63-23.13,6.12Z"/>
            <g>
              <path class="cls-3" d="m2670.78,2734.99l19.72,55.13,252.86-150.76,3.29-1.9c1.89-1.66,3.4-4.25,4.33-7.68,2.94-10.85-1.09-26.11-9.03-34.08-4.51-4.54-9.29-5.74-13.13-3.93l-1.21.71-256.83,142.52Z"/>
              <path class="cls-2" d="m2674.04,2736.22l254.85-141.42,1.14-.67c.75-.34,1.55-.5,2.39-.5,2.38,0,5.09,1.4,7.63,3.95,7.32,7.36,11.07,21.49,8.35,31.52-.73,2.71-1.88,4.85-3.34,6.21l-3.04,1.76-250.12,149.12-17.87-49.96Z"/>
            </g>
            <path class="cls-3" d="m2664.59,2744.92c-3.48,12.86,1.31,30.93,10.7,40.38,9.4,9.45,19.83,6.68,23.31-6.18,3.48-12.85-1.3-30.93-10.7-40.37-9.39-9.45-19.84-6.68-23.32,6.17Z"/>
            <path class="cls-2" d="m2686.57,2788.25c-3.01,0-6.26-1.67-9.4-4.83-8.78-8.83-13.27-25.79-10.01-37.81,1.69-6.24,5.14-9.82,9.47-9.82,3.01,0,6.26,1.67,9.4,4.83,8.78,8.83,13.28,25.79,10.02,37.81-1.69,6.24-5.14,9.82-9.47,9.82h0Z"/>
          </g>
        </g>
        <path class="cls-11" d="m1670.09,138.16c116.03-79.58,193.39-201.59,263.9-98.79,70.51,102.8,33.61,250.66-82.42,330.24-160.74,110.25-435.14,15.75-470.16-98.59-69.26-226.21,172.65-53.28,288.69-132.86Z"/>
        <path class="cls-11" d="m3351.86,841.16c80.18,74.91,177.45,122.52,130.13,173.17-47.32,50.64-150.68,30.97-230.86-43.94-111.07-103.78-121.08-290.52-57.37-317.82,126.04-53.99,77.92,113.68,158.1,188.59Z"/>
        <path class="cls-9" d="m3356.28,1531.94c-3.21-64.56-33.38-124.16,26.1-127.12,59.47-2.96,110.29,46.98,113.51,111.54,4.45,89.44-102.83,174.29-158.08,160.58-109.3-27.14,21.69-80.44,18.48-145Z"/>
        <path class="cls-5" d="m670.62,897.84c-37.91-111.83-85.28-219.6-108.58-336.02-23.19-115.88-31.38-274.25,90.58-338.92,97.53-51.85,220.89-25.45,321.87,2.11,105.68,30.83,207.61,73.74,305.25,124.45-115.21-42.91-231.19-86.39-352.11-110.51-70.61-14.02-150.47-24.98-221.44-4.62-260.63,74.79-70.93,493-35.57,663.52Z"/>
      </g>
      <path class="cls-10" d="m1916.21,857.4l31.1,4.06-4.71,21.94-51.08-6.66,4.38-20.38,45.45-63.68-30.9-4.03,4.71-21.94,51.08,6.66-4.38,20.38-45.65,63.65Z"/>
      <path class="cls-10" d="m1966.02,882.11c-3.71-4.24-6.13-9.93-7.24-17.06-1.12-7.13-.7-15.24,1.26-24.33,1.93-8.99,4.94-16.73,9.02-23.24,4.08-6.5,8.78-11.29,14.1-14.35,5.32-3.07,10.79-4.23,16.42-3.5,5.63.73,10.32,3.23,14.06,7.47,3.75,4.25,6.19,9.97,7.33,17.15,1.14,7.19.74,15.27-1.19,24.26-1.93,8.99-4.95,16.73-9.07,23.23-4.12,6.5-8.85,11.28-14.2,14.34-5.35,3.06-10.84,4.23-16.47,3.49-5.63-.73-10.3-3.22-14.01-7.47Zm28.81-20.25c3.18-3.45,5.52-8.68,7.02-15.68,1.5-7,1.51-12.53.02-16.59-1.49-4.06-3.92-6.31-7.29-6.75-3.43-.45-6.68,1.04-9.74,4.45-3.06,3.42-5.36,8.67-6.88,15.78-1.5,7-1.55,12.53-.12,16.58,1.42,4.05,3.82,6.3,7.18,6.74,3.36.44,6.64-1.07,9.81-4.52Z"/>
      <path class="cls-10" d="m2062.28,779.77l-24.92,115.98-17.61-2.3,24.92-115.98,17.61,2.3Z"/>
      <path class="cls-10" d="m2064.49,829.85c3.69-6.5,7.85-11.33,12.48-14.48,4.63-3.15,9.32-4.42,14.05-3.81,4.05.53,7.33,2.24,9.85,5.15,2.52,2.9,4.16,6.5,4.93,10.79l2.66-12.38,17.61,2.3-18.79,87.46-17.61-2.3,2.66-12.38c-2.59,3.85-5.69,6.83-9.28,8.94-3.59,2.11-7.42,2.9-11.47,2.37-4.67-.61-8.53-3.02-11.58-7.23-3.05-4.21-4.95-9.88-5.71-17.02-.76-7.13-.18-15.19,1.75-24.18,1.93-8.98,4.74-16.73,8.43-23.23Zm34.33,12.69c-1.61-4.18-4.16-6.5-7.66-6.96-3.5-.46-6.88,1.06-10.14,4.56-3.26,3.5-5.6,8.59-7.04,15.28-1.44,6.69-1.36,12.15.24,16.39,1.59,4.24,4.14,6.58,7.65,7.04,3.5.46,6.89-1.09,10.16-4.64,3.27-3.55,5.62-8.67,7.06-15.35,1.44-6.69,1.35-12.12-.25-16.31Z"/>
      <g>
        <path class="cls-13" d="m2161.64,825.36c4.92-8.11,10.65-14.18,17.2-18.22,6.55-4.03,13.33-5.59,20.33-4.68,8.58,1.12,15.19,5.52,19.82,13.22,4.63,7.69,6.7,17.63,6.2,29.81l-19.36-2.52c-.46-4.79-1.75-8.55-3.87-11.3-2.13-2.75-4.87-4.34-8.24-4.78-5.43-.71-10.44,1.59-15.04,6.9-4.6,5.31-7.93,12.77-10,22.38-2.07,9.61-2.03,17.51.1,23.7,2.13,6.19,5.91,9.63,11.33,10.34,3.36.44,6.63-.37,9.79-2.43,3.16-2.06,5.95-5.29,8.38-9.7l19.36,2.52c-4.62,11.64-10.72,20.49-18.3,26.54-7.58,6.05-15.66,8.51-24.25,7.39-7-.91-12.76-4.11-17.26-9.58-4.51-5.47-7.39-12.65-8.67-21.51-1.27-8.87-.74-18.73,1.6-29.6,2.33-10.87,5.96-20.35,10.88-28.47Z"/>
        <path class="cls-13" d="m2288.41,847.85c2.55,7.16,2.59,16.53.1,28.13l-10.98,51.1-17.51-2.28,10.21-47.49c1.26-5.85,1.24-10.53-.06-14.03-1.3-3.5-3.62-5.47-6.99-5.91-3.37-.44-6.39.83-9.08,3.81-2.69,2.98-4.66,7.4-5.92,13.25l-10.21,47.49-17.61-2.3,24.92-115.98,17.61,2.3-8.66,40.28c2.62-3.63,5.72-6.4,9.3-8.29,3.58-1.9,7.3-2.59,11.14-2.09,6.59.86,11.16,4.87,13.72,12.02Z"/>
        <path class="cls-13" d="m2304.15,861.1c3.69-6.5,7.85-11.33,12.48-14.48,4.63-3.16,9.32-4.42,14.05-3.81,4.05.53,7.33,2.24,9.85,5.15,2.51,2.91,4.16,6.5,4.93,10.79l2.66-12.38,17.61,2.3-18.79,87.46-17.61-2.3,2.66-12.38c-2.59,3.85-5.69,6.83-9.28,8.94-3.6,2.11-7.42,2.9-11.47,2.37-4.67-.61-8.53-3.02-11.58-7.23-3.05-4.21-4.96-9.88-5.71-17.02-.76-7.13-.18-15.19,1.75-24.18,1.93-8.98,4.74-16.73,8.43-23.23Zm34.33,12.69c-1.61-4.18-4.16-6.5-7.66-6.96-3.5-.46-6.88,1.06-10.14,4.56-3.26,3.5-5.6,8.59-7.04,15.28-1.44,6.69-1.36,12.15.24,16.39,1.59,4.24,4.14,6.58,7.65,7.04,3.5.46,6.89-1.09,10.16-4.64,3.27-3.55,5.62-8.67,7.06-15.35,1.44-6.69,1.35-12.12-.25-16.31Z"/>
        <path class="cls-13" d="m2396.63,919.24l-4.88,22.73-8.96-1.17c-6.38-.83-10.85-3.86-13.4-9.08-2.55-5.22-2.67-13.21-.35-23.97l7.48-34.79-7-.91,4.78-22.26,7,.91,4.58-21.32,17.61,2.3-4.58,21.32,11.54,1.5-4.78,22.26-11.54-1.5-7.54,35.11c-.56,2.61-.55,4.55.02,5.8.58,1.26,1.83,2.01,3.75,2.26l6.28.82Z"/>
      </g>
    </g>
  </g>
</svg>