<?xml version="1.0" encoding="UTF-8"?>
<svg id="Layer_2" data-name="Layer 2" xmlns="http://www.w3.org/2000/svg" viewBox="0 0 2731.36 674.28">
  <defs>
    <style>
      .cls-1 {
        fill: #bee0e1;
        stroke-width: 0px;
      }
    </style>
  </defs>
  <g id="_Ñëîé_1" data-name="Ñëîé 1">
    <path class="cls-1" d="m2731.36,0c-36.32,87.1-109.92,157.81-211.83,171.8-130.25,17.88-281.26-45.63-395.78,43.46-73.07,56.84-83.9,159.57-162.89,211.12-74.92,48.88-175.48,42.4-256.17,79.55-103.78,47.79-170.74,149.3-293.92,151.3-120.71,1.97-225.25-77.26-343.98-88.18-144.73-13.31-282.81,56.74-419.7,91.53-85.73,21.79-194.65,15.44-280.55-4.07-104.69-23.77-171.59-104.57-239.81-181.94-38.14-43.26-82.05-83.39-126.73-123.15V0h2731.36Z"/>
  </g>
</svg>